<?xml version="1.0"?><svg width="640" height="480" xmlns="https://www.w3.org/2000/svg">
 <title>canada</title>
 <metadata id="metadata10299">image/svg+xml</metadata>
 <g>
  <title>Layer 1</title>
  <g id="g10301">
   <g id="g10303">
    <path fill="#b2b2b2" fill-rule="nonzero" id="path10305" d="m234.217361,66.768173c0,0 -4.04657,5.889557 -4.04657,1.549881c0.224564,-0.697426 0.823593,-1.242493 1.423615,-1.937347c-2.098862,-2.634777 -2.922424,1.239922 -3.522491,1.239922l0,-3.719719c-1.947739,-1.627388 -3.521729,-0.464977 -4.496475,-2.867268c0.150146,-0.852448 2.473587,-4.417183 3.747055,-4.417183c1.274261,1.704895 1.724167,2.169838 3.298157,0.232494c-1.349411,-2.324821 -1.274475,-2.324821 -0.600021,-5.114586c2.773102,0 3.596695,1.85984 6.295807,0.927338c0,-1.702274 -1.200302,-2.399742 -1.200302,-4.802036c2.174042,0 1.049942,-5.269596 4.272141,-1.472404c2.398376,0 0.524841,-3.332249 0,-3.874695c0.824371,-0.542454 2.097885,0.462391 2.922485,-0.542454c0,-2.634781 4.946381,-4.184658 6.070465,-5.889553c1.124115,0.232491 4.646622,4.262165 4.646622,0.309994c5.545395,0.464947 5.695755,-1.007423 9.217514,4.337059c-2.023926,2.172424 -0.975037,4.574745 -2.922699,6.899567c0.525055,3.332249 0.299713,2.092331 -1.199066,3.642212c0.74942,4.804615 2.54776,-1.472378 2.773041,-2.169842c0,-1.784954 0.449921,-1.62735 1.574036,-2.247314c1.648224,2.399715 0,4.494659 0,7.28442c-1.724152,2.092335 0.448883,4.959633 0.973724,6.896984c-5.09552,5.96703 -0.225281,2.092323 -0.225281,7.284412c-0.898804,1.162415 -1.723206,1.937355 -3.147095,1.937355c-1.048889,2.324821 2.548035,3.177261 -1.124084,3.177261c-1.199066,1.472374 2.322388,2.557274 1.124084,4.184669c-2.473511,1.472366 0.449921,1.93734 2.997681,1.93734c0,0.697433 1.64917,4.339668 2.322388,5.344521c-3.371307,6.279572 -0.898529,5.582138 -3.521454,12.169121c-0.524078,0 -3.74704,0.77494 -3.89743,1.007408c0,2.47982 0.075195,2.867302 2.698151,2.867302c1.574005,-1.782372 3.072815,0.464935 5.69577,1.004837c2.99765,-1.549881 -0.975037,4.884674 -0.449921,3.644791c-3.74704,-1.78495 0,2.247307 -3.29715,2.247307c-2.173279,2.63224 -1.273499,2.092331 -4.646851,-0.309959c-3.371353,5.734535 -2.472565,6.199516 -2.772339,1.239883c-2.62291,2.944778 -3.522461,4.649635 -6.819641,3.874702c-2.922684,-0.774948 -4.796219,0.387474 -5.470459,2.477242c-6.970032,-3.25219 -4.12175,-4.649628 -1.424606,-9.764244c0,-1.779785 -2.097885,-4.262169 -2.097885,-6.041954c2.773087,-2.247314 4.49649,3.874702 6.819656,3.407166c5.321075,0 -1.1241,-5.499489 -1.948486,-6.119453c0,-2.557304 1.124161,-1.62738 -0.8246,-3.179825c-0.89978,1.862434 -0.599289,0.39003 -2.098083,1.397461c0,0.309998 -0.224319,0.54245 -0.224319,0.774933c-2.473572,0 -1.349457,-4.804611 -1.349457,-6.819466c-0.973969,0.077507 7.41893,-3.022255 6.669525,-2.634781c0,0.077499 -10.116074,-11.85659 -8.991928,-10.461685c0,-3.254738 -2.324448,-2.792351 1.198288,-4.959602c3.822006,1.779785 5.844925,4.727112 3.896194,-2.16983c2.548767,-3.797226 4.273132,-4.804623 4.273132,-9.299282c-1.124084,-0.232487 -4.646835,5.192089 -4.646835,5.889523c-2.473557,2.092361 -2.997635,0.077507 -5.170685,3.642242c-1.19931,0 -2.473557,-1.007431 -2.773315,-2.014862l0,0zm-16.487091,-0.929909c0,-1.937355 3.148041,-0.929924 3.896454,-0.697472c3.597672,0.852448 1.498825,6.509521 6.595306,8.059387c0,-3.487228 3.372375,2.634789 3.372375,-0.929916c1.57402,-1.084938 1.723373,2.092331 1.723373,2.402298c3.447586,3.564728 -0.074173,5.657059 5.096542,5.347092c2.847488,4.649643 0.52507,4.029686 0.52507,9.996712c-0.52507,0.77494 -1.724396,0.464973 -2.473801,0.464973c0,1.239891 0.224564,2.712288 0.37471,3.874702c0,5.347069 -4.04657,0.697426 -5.245895,4.417145c-3.147797,1.549873 -6.219604,-7.284454 -5.47023,-8.756821c3.59671,0 2.47258,-4.417145 -1.799316,-3.719719c-2.622955,-3.099754 -1.57399,-12.554016 -5.095749,-14.571457c0,-3.099754 1.273499,-4.649628 -1.49884,-5.886925l0,0zm14.613556,47.038818c-2.772079,1.39489 -2.473557,2.867264 -3.522491,-0.697441c-1.198318,-4.107178 -7.643494,0.929924 -7.643494,3.409721c1.348694,1.62738 3.74707,2.632225 5.32106,4.339668c3.446548,-2.557297 10.3414,-4.419731 7.943039,2.944756c1.274231,1.549866 2.023651,4.184692 2.548737,5.889549c-0.07518,3.019714 -0.375702,4.184662 2.772308,4.184662c1.349457,2.634811 3.897202,-0.309967 4.946106,-1.549881c0.599289,0.309998 1.723419,1.704895 2.54805,1.549881c2.547729,-2.479797 5.095474,-0.387482 6.969971,-3.022247c1.34848,0.774933 3.222015,0.229889 4.720825,-1.627396l0,-1.472366l2.322388,-0.929924c0.750458,1.007431 1.125183,2.169838 1.948792,1.39489c0,-2.482384 3.14801,-0.932495 4.347046,-2.16983c2.022949,-1.08493 1.049194,-2.169838 0.374756,-3.409752c0.15033,-0.309952 0.749359,-1.007401 1.124084,-1.24247c-2.773102,-3.329666 -0.824371,-3.562149 -2.697876,-5.809456c-1.199341,0 -6.069519,-1.317398 -5.47049,-1.317398c-2.622925,2.014832 -3.522461,3.717133 -7.418915,3.717133c-0.525085,3.099762 -3.52272,1.552437 -3.52272,5.117165c-1.423645,0 -1.349457,0.232498 -2.023666,-1.472374c-2.323425,0 -3.147034,2.942192 -5.1707,2.942192c-0.449875,-0.464966 -0.599274,-1.779778 -0.599274,-2.399742c-1.42363,-1.862419 -3.22197,0.77494 -4.720779,-2.479797c1.723145,-0.85244 1.947693,-0.232483 1.947693,-2.16983c-2.472778,-1.782364 -4.346313,-2.63736 -7.044449,-3.719711l0,0zm-6.444946,13.638947c0,4.339638 -2.24823,2.40229 0,7.361931c4.196686,0 2.697876,1.859833 7.4189,0.232437c0,-2.634766 -3.822235,-7.284409 -4.645798,-8.756775c-0.899567,-0.545052 -2.24826,0.542442 -2.773102,1.162407l0,0zm-11.540939,-3.642242c-0.749435,0 -2.023682,1.007423 -2.472565,0c0,-1.472366 -1.799347,-2.169815 -2.323425,-2.944756c-0.600037,0.77494 -0.600037,0.77494 -1.274246,1.472389c2.098846,0 -0.224564,3.022232 -0.37471,3.177254c2.62294,0 -0.89978,4.107162 -1.124115,4.184662c0.74942,1.549881 3.072586,0 3.072586,-1.239922c1.19931,0 2.323425,-0.697426 3.148026,0.310005c0,2.247299 -1.574005,5.269592 1.34845,6.04454c0,-2.169846 1.19931,-0.774948 2.173309,0.232437c1.49881,0 2.023636,-0.232437 3.297119,-0.232437c0,-0.07753 1.948746,-3.87471 1.948746,-3.642242c-2.847519,-3.489792 -0.599274,0.309982 -0.599274,-3.409729c-2.098862,0 -1.94873,-8.52433 -1.94873,-8.989319c-1.724136,-2.092323 -1.724136,-1.317383 -3.447281,0.697472c-0.74942,-0.929916 -1.199326,-2.324821 -1.723419,-1.007431c0,2.092331 -0.449905,3.487228 0.29953,5.347076l0,0zm2.547989,-29.680161c-0.449905,2.477211 2.398392,8.754204 3.147766,11.159119c-0.150116,0 5.92012,-3.567284 4.871216,-3.099762c-1.948746,-1.394897 -0.974747,-1.782364 -0.974747,-3.719711c-2.772324,-3.564713 -3.746063,-4.109749 -7.044235,-4.339645l0,0zm-16.562241,5.81205c0,3.717125 4.046585,-0.309998 5.62059,1.779747c2.997635,0 2.62294,-0.07489 3.74704,2.404915c3.072861,0 1.125137,2.632187 3.67189,2.632187c1.873535,-5.037102 5.321075,2.947365 0.974731,-6.041916c-0.449646,-0.619949 -2.697891,-4.262161 -2.697891,-5.57959c-2.472824,-1.0849 -6.145676,-0.464935 -7.86882,-4.882088c-2.173294,-0.77494 -3.07283,-2.634819 -5.24588,0.232452c2.547729,7.129463 4.121765,-0.774933 4.121765,4.339676c1.04892,1.472374 2.248245,1.627388 1.34845,3.407143c-2.622955,0 1.948715,-2.012245 -3.671875,1.707474l0,0zm8.544037,5.114578c-4.422287,1.162415 -0.449905,0.232491 -2.098846,1.937347c0.600006,0.77494 0.899536,1.314804 2.098846,0.232491c0,-1.549881 1.198303,-0.855026 0,-2.169838l0,0zm-25.405807,-6.276993c0,2.867271 -3.29715,4.339684 3.37236,1.62738c1.1241,1.549889 0.974731,0.774948 2.92244,0.774948c2.548752,3.022247 3.522751,0.929924 3.522751,-1.937355c0,0 -5.321091,-4.494644 -5.321091,-0.774933c-1.947708,0 -2.847504,-1.937347 -4.49646,0.309959l0,0zm21.958252,8.911812c-0.823608,0 -1.423615,0.307373 -1.798325,0.774933c0,1.627357 0.974716,1.937347 0.974716,3.564705c0.973999,1.239906 1.273529,1.31739 2.173065,0.30999c0,-1.472404 -0.449646,-3.719719 -1.349457,-4.649628l0,0zm4.872192,3.642204c-1.57402,0 -1.6492,-0.54245 -2.923477,1.007423c0,1.549889 0.750427,2.944748 -1.423599,2.944748c0,1.239914 2.323166,1.394897 3.147751,1.937347c0,3.332245 3.896454,0.232491 4.721039,0.232491c0,-1.549873 -0.599258,-2.789764 0,-3.642204c0.074951,-0.619965 1.873535,-3.719719 0.600037,-3.719719c-0.525085,-0.077477 -3.14801,1.239914 -4.12175,1.239914l0,0zm-24.805801,8.524323c-0.974716,0 -5.021271,3.952187 -5.32106,3.952187c1.12413,0.697464 2.622955,2.867302 4.721069,2.867302l0,-1.937355c1.724136,-0.387459 2.32341,1.704865 2.32341,2.942192c-0.075195,0 5.920105,-3.949615 5.62059,-3.639656c0,-2.634773 -0.075195,-2.014832 2.547745,-2.014832l0,2.014832c2.323441,0 1.94873,-1.937355 3.897186,-2.71228c-0.074936,-0.464958 -0.29953,-0.929924 -0.29953,-1.707458c1.574036,-0.617363 2.022934,-0.384872 2.697144,-1.469788c0.675217,0.387482 -0.823608,-5.657059 -1.198303,-6.122032c-0.300522,0.464973 -3.07283,3.254738 -3.897186,3.254738c-0.599289,-1.239883 -1.57402,-1.239883 -2.698135,-1.239883c-1.124115,0.852417 -7.643494,4.107178 -8.392929,5.812035l0,0zm8.54306,15.188797c-1.648956,2.012283 -1.274246,1.704895 -0.150131,3.099747c1.724136,0 2.023666,0.387497 2.923462,1.70491c1.798325,0 2.997635,0.154984 4.12175,-1.239914c1.048935,0 1.12413,0.384888 1.12413,1.239914c2.173019,0 5.320053,-1.239914 7.044205,1.007385c-1.42363,1.859863 -4.271881,0.309998 -5.845901,2.169846c-4.645859,0 -2.772324,3.25473 -1.198303,5.347107c5.620575,-1.162415 6.07048,-0.542496 9.36763,-4.339661c2.472565,-1.239929 6.818893,-3.719727 10.04187,-1.70488c1.948746,0 2.622955,-4.41713 2.847519,-5.889542c1.199066,-5.037109 0.600037,-2.247314 -0.898773,-6.047089c-1.724167,0 -1.948746,1.397446 -3.373383,1.397446c-0.448898,0 -0.748398,-5.194672 -0.748398,-5.579567c-1.874542,0 -0.449905,2.322243 -1.798325,-2.634773c-0.150391,0 -5.921112,2.247314 -4.122757,1.472374c-0.374725,2.867271 0.675201,4.029686 2.174042,5.809456c-1.274506,4.032272 -1.424652,2.63736 -0.974747,5.349655c-1.348694,1.472412 -1.948715,0.074921 -1.948715,-1.472382c-5.1707,-1.937347 -6.66951,-4.262161 -9.966949,-8.989296c-1.723145,0 -1.573761,1.237328 -2.547729,2.399727c-1.874542,-1.004837 -0.29953,-1.934761 -2.773071,0.777542c0,1.704865 0.74942,2.867264 -2.323441,3.87468c2.248245,2.634796 3.748062,2.247314 -0.973984,2.247314l0,0zm0.224579,-5.424561c-2.547729,-1.474976 -3.971619,1.70488 -5.470459,2.71228c0.973984,0.774948 1.723389,0.774948 2.32341,2.16983c3.596939,-0.852417 -0.899506,-3.099747 3.147049,-4.882111l0,0zm7.418915,-8.291847c1.874542,0 2.773331,-2.789764 3.747055,0c-0.823608,1.472397 -2.996628,1.472397 -4.12175,1.239906c0,-0.235069 0.150391,-0.542458 0.374695,-1.239906l0,0zm51.560059,7.284447c-0.898575,0.774933 -0.524857,0.774933 -1.348465,1.937347c0.59903,0.307373 1.573013,0.307373 1.947754,-0.157562c-0.224609,-0.307419 -1.048935,-1.392319 -0.599289,-1.779785l0,0zm-3.29718,4.957001c-0.8246,0 -2.248245,0.855042 -1.349442,2.172424c1.49884,0 1.274231,-0.774918 1.349442,-2.172424l0,0zm-20.534637,4.342285c-0.524078,-0.697479 -0.823608,-1.16243 -1.497833,-0.232498c0,1.0849 0.823593,3.409714 1.947723,3.409714c0.824585,-1.009995 0.075211,-1.937347 -0.44989,-3.177216l0,0zm1.724152,-5.347122l-1.274261,0c0,2.092331 1.274261,0.619965 1.274261,0l0,0zm-0.899536,-2.71228l-1.948746,0.539871c0.300522,0.464966 0.899811,1.242493 1.57402,1.397476c0,-2.634781 1.12413,-0.077484 0.374725,-1.937347l0,0zm-0.374725,-2.40229c-0.823593,0 -1.57402,0.229874 -2.397614,0.229874c0,0.464958 0.224564,0.777512 0.44989,0.932533c0.524094,0 1.947723,-0.155022 1.947723,-1.162407l0,0zm7.194611,-5.579597c-0.823593,0.155006 -0.823593,0.929955 -1.19931,0.929955c0,0.77494 0.375717,0.77494 0.974731,0.77494c0.67424,-0.77494 0.224579,-0.855034 0.224579,-1.704895l0,0zm-7.419159,2.39975c-2.323196,-0.307388 -0.74942,0.622536 0,1.707443c2.023895,0 1.1241,-0.852409 0,-1.707443l0,0zm-2.54776,-10.459099c-0.824615,2.169838 -0.374725,2.247307 1.723373,4.107178c0,0.387474 -2.547989,1.702271 -2.847504,1.239891c0,-1.704865 -0.600006,-4.107155 -0.44989,-5.657043c2.323425,0 1.199295,0.077484 1.57402,0.309975l0,0zm22.032455,-2.944786c2.098083,0 3.521744,-0.232491 5.545639,0c0,1.007431 0.899536,2.402321 0.374695,3.177269c-0.824615,0 -1.948715,-0.774948 -1.948715,1.239883c-2.022903,-1.007401 -0.898819,-2.092331 -2.547745,0.232483c-1.574005,0 -1.574005,-3.952164 -1.423874,-4.649635l0,0zm10.192245,-0.232491c0,3.022293 1.574005,0.929962 1.574005,3.177277c1.198334,1.39489 1.573029,-0.232491 2.022919,-1.859848c-0.524078,-0.697456 -2.922699,-2.092361 -3.596924,-1.317429l0,0zm-7.045242,33.864891c0.750427,0.774933 1.274506,0.929901 2.398636,0.232452c-0.524078,-0.619934 -1.57402,-0.774933 -2.398636,-0.232452l0,0zm-2.697113,-0.464966c-0.600021,0 -1.798355,0.232452 -1.948715,0.929916c1.348694,0 1.274506,-0.929916 1.948715,-0.929916l0,0zm-107.765915,26.42543c-1.124115,0.387482 -1.27449,-5.424591 -1.27449,-6.122009c-4.196701,-4.497238 -1.274246,-2.324829 -3.522507,-5.347092c1.499847,-2.324814 1.499847,-0.387482 2.773102,-4.187256c2.023895,-1.314804 2.323425,-0.927322 2.323425,-3.639618c2.622925,-4.109772 3.896439,-8.524338 3.896439,-13.173981c1.274246,0 2.398361,0.697449 3.522491,0.697449c1.798584,-2.247314 1.6492,-1.239929 3.747055,-1.239929c1.798584,-2.247314 2.098099,-2.1698 2.847504,0.309998c4.12178,4.959579 5.695801,4.262177 12.140717,4.339661c-0.299515,0.929932 -0.599014,1.937347 1.12413,1.937347c1.049179,1.937332 2.098099,4.262146 1.648209,6.58696c-11.765274,6.819473 -7.343719,2.092361 -14.913055,10.306717c-0.224548,0.464981 -0.299484,2.16983 -0.299484,2.634827l-1.648239,0c0,-0.387482 -2.249222,3.87468 -2.548737,4.417145c-1.648209,0.542435 -3.29718,0.077469 -3.29718,1.704849c-1.19928,0 -1.1241,-0.545044 -1.49881,-1.472382c-0.973969,-0.309982 -5.020569,2.089752 -5.020569,2.247314l0,0zm202.790833,-56.183113c3.89743,0 0.674469,2.634781 7.044464,1.782341c1.274231,1.469818 -0.299774,2.247345 -0.973969,2.867302c0,0.54245 0.448853,1.007401 0.448853,1.472374c0,0.387459 -1.648193,3.719711 -2.022858,4.184662c0,0.077499 1.574005,2.867302 1.574005,1.93734c-0.600037,0.694885 -0.974792,1.627388 -1.199341,2.712288c-4.196686,0 -4.121735,0 -2.772034,3.87471c-0.899841,1.162415 -2.249268,3.177246 -2.249268,4.879547c-2.397614,0 -5.695801,-8.444244 -6.519379,-9.839157c0.74942,-1.782372 -0.899536,-3.099754 -0.899536,-5.037109c2.023651,-2.789787 4.571411,-1.394897 0.899536,-5.114609c0.075165,-0.232452 2.24823,-2.479805 2.173065,-2.40229c3.672089,0.232483 2.548004,1.239876 4.49646,-1.317398l0,0zm-126.276642,31.772514c0.524857,0 3.297165,0.309982 3.297165,-1.162399c-2.247223,0 -3.221954,-1.397491 -3.297165,1.162399l0,0zm130.173828,-23.945648c-0.374725,3.40976 0.973969,2.712296 3.297394,2.712296c1.648956,-6.276985 1.573792,-0.235046 1.573792,2.169838c1.723389,1.549889 1.649231,0.852448 1.124115,2.944786c0,2.324814 0.44989,3.409714 0,5.424576c-3.29715,0 -1.349457,-0.077515 -2.84726,2.092316l-2.547791,-0.697433c0,2.167252 0.89856,2.557266 -0.824554,4.572144c-1.874573,-2.014877 -6.670532,-6.667053 -8.169342,-8.216934c-1.198303,0.777496 -2.547791,-0.69487 -3.971649,-0.69487c0,-2.404892 0.374695,-2.01741 -1.573792,-3.022263c0,-1.707443 -2.248199,-4.419724 -1.124084,-6.044525c3.74704,0.774933 3.821991,0.154976 6.219604,3.409721c6.14566,0 -2.546753,-6.664459 -2.697113,-6.819473c0,-2.479805 2.697113,-0.232468 0.74942,-2.634789c0.2995,-0.309967 3.446533,-5.967026 4.721008,-2.712288c1.124115,4.184654 5.920135,1.704865 7.418976,0.464981c1.349426,1.782326 0.524811,2.247307 -0.224609,3.177231c0,0.542442 0.374695,1.239914 0.824615,1.704865c-1.199341,1.317421 -1.574005,0.54248 -1.94873,2.169823l0,0zm-25.630127,-4.109734c-1.198303,1.707443 1.124115,4.652191 1.799347,5.892105c2.397583,0 2.173035,3.79464 2.472565,5.037117c1.348694,-0.855019 1.423859,-1.31739 1.423859,-3.099762c0.449677,-1.627396 2.54776,-7.361931 -1.574005,-7.361931c-0.898804,2.324814 -4.121765,3.254738 -4.121765,-0.467529l0,0zm-108.51532,80.518776c0.824585,0.929932 1.19931,2.246567 2.022903,3.176758c0,0.232208 -0.448898,0.697418 -0.448898,0.697418c-2.698135,0 -1.049927,-2.789246 -1.574005,-3.874176l0,0zm108.890015,-86.873299c-1.349457,1.779778 2.622925,1.70488 2.99765,1.70488c-1.04895,-1.007416 -1.573761,-1.70488 -2.99765,-1.70488l0,0zm4.721039,7.59182c-1.048889,0.776237 -1.723389,1.706436 0.600037,1.706436c0,-0.697212 -0.974731,-2.168785 -0.600037,-1.706436l0,0zm-167.868225,40.534515c1.79834,0 3.671875,0.849869 3.671875,-2.944778c2.622925,0.309998 2.848511,1.007431 3.672119,-1.937347c-0.299774,0 4.12175,-1.782364 5.096497,-1.937347c1.648209,2.014847 -0.375717,3.952194 -0.375717,6.586975c1.57402,1.16243 1.94873,-0.697418 1.94873,-1.937347c2.62294,0 5.996277,-0.387466 5.92009,2.634811c2.023911,1.859848 0.750427,0.697449 0.750427,3.409744c-3.447556,2.867264 0.674194,2.324814 0.748413,2.16983c0.375702,-2.247345 1.049927,-1.397491 2.773315,0c2.62294,0 0.824341,-2.324829 1.948471,-3.644806c0,-1.549866 -2.17305,-2.399734 -1.348419,-3.407166c4.645813,0 6.144638,7.981873 7.19458,10.461685c2.097855,0 0.898529,1.082352 1.198303,-2.634796c-1.049179,-1.317368 -1.574005,-8.83432 -0.824585,-9.764236c1.574005,0 1.799332,-0.929916 4.271881,-0.929916c0.674469,1.317383 6.895096,17.04866 6.895096,19.450989c-2.398636,4.182083 0.67421,3.564697 3.74704,7.594376c2.097855,0 -1.499817,-3.952179 2.847275,1.394897c1.649216,0.619965 2.773331,0.852448 4.12175,1.782364c0,-0.542435 0.37471,-1.007416 0.599319,-1.239899c2.473526,3.022263 1.423599,1.08493 1.423599,4.882111c-1.048904,1.239929 -3.147018,-1.549881 -3.147018,1.70488c-3.447311,1.162384 -0.524826,-2.479813 -4.121765,1.937332c0,1.239914 0.224594,2.557297 0.973984,3.177277c0.824615,-2.014847 0.824615,-1.937363 3.147781,-1.937363c1.049164,1.549881 0.8246,1.62738 0.149368,3.642212c0.449905,0.54248 0.974731,1.007431 0.974731,1.70488c-1.723114,0.464447 -2.323166,-0.697449 -3.521484,0.77417c-4.646835,0 -4.272141,-2.789017 -6.220871,-0.77417c-2.773041,-0.154999 -2.248215,0.231201 -2.547729,-1.70488c0,-0.54245 0.599274,-0.54245 0.599274,-1.239883c-0.973984,-0.464966 -2.548004,-0.464966 -3.522736,-1.70488c0.824615,-3.177246 1.049927,0.077499 2.548752,-1.704865c-1.498825,-2.014832 -6.220596,-0.309967 -6.220596,1.937347c-3.74707,-0.774948 0,1.472397 -1.94873,1.472397c-2.397644,-1.552475 -1.79834,2.247314 -1.79834,1.782364c-3.896439,-0.235077 -1.423645,-0.622559 -3.147034,1.162399c-6.145416,1.85881 -12.665802,5.346054 -18.585892,1.23938c0,-0.233246 -0.599304,-5.736618 -0.67424,-5.889023c-1.423889,-1.472366 -4.421539,-0.235062 -5.920364,-0.542465c-0.150116,0 -5.320816,-4.804611 -5.320816,-6.741974c1.573746,-1.859848 2.398376,-1.627365 4.196701,-3.719711c1.199326,0 1.724411,0.619965 1.724411,1.782364c0.823593,0 1.123108,-1.472366 1.723145,-1.782364c3.971634,-0.619949 3.821243,2.479813 6.444183,2.479813c0,-2.169815 3.74707,-1.239883 4.721802,-1.239883c-0.898544,1.317383 1.1241,-1.162415 1.348694,-3.177261c-1.048935,-0.309967 -9.292465,-5.424576 -10.716354,-2.01741c-1.723129,-0.307419 -11.016586,-1.624817 -11.016586,-5.731995c1.349426,0 6.670517,-2.247299 6.670517,-3.954758c-1.649231,0 -3.597702,-1.31485 -4.497482,-0.229904c-1.348434,-1.549881 -2.547745,-6.047119 -1.348434,-7.516907c2.17305,0 3.97139,-0.464981 2.773071,-3.177261l0,0zm291.895599,22.311798c-1.498779,2.325607 1.199097,4.495163 1.199097,6.122803c-1.199097,2.014832 -1.798615,3.099762 0.74942,3.641449l1.198975,4.882874c-1.348816,0 -0.749298,0.464981 -1.948395,-0.774933c0,-0.852707 0.74942,4.881607 0.74942,5.19133c1.873566,0.542969 1.798553,0.387466 2.922638,-1.239136c1.498901,0.541946 1.573761,4.106918 4.121826,4.106918c2.622894,-2.944489 2.922638,-2.557831 2.697876,-6.586975c2.398071,0 3.372314,-3.487213 3.372314,-5.346848c0.599518,-0.852676 1.723663,-0.155472 2.548065,-1.47316c2.023438,1.239929 2.99762,1.47316 5.470734,2.945282c1.723663,-3.487213 2.922577,-1.859573 4.271576,-0.232986c0.74942,-3.022247 2.323212,-1.394608 2.323212,-4.648849c-1.124115,-1.395401 -4.646393,-0.698212 -6.220184,-0.698212c-1.348877,-2.866531 -1.049133,-1.394394 -5.695465,-3.641449c-1.199097,-0.852707 -4.121826,-2.480316 -5.620575,-2.480316c0,-1.78186 -1.948547,-3.177505 -1.948547,-0.231964c-2.99762,0 -1.573761,-3.875763 -4.121704,-0.233246c-1.798584,-0.309723 -2.922791,1.549866 -2.922791,-1.704117c-2.023346,-1.473175 -5.620544,-4.882889 -3.147491,2.401535l0,0zm-116.98288,-70.13073c-0.224823,1.240166 0.149872,1.938393 0.74939,2.635574l0.224823,0.308922c0.74942,-0.308922 1.948456,-0.773895 2.772858,-1.239136c0,-1.70536 -2.548065,-1.70536 -3.372345,-2.247055c-0.224854,0 -0.374725,0.309708 -0.374725,0.541695l0,0zm-5.470703,0.697433c0.899231,1.240959 1.423859,1.705147 2.697845,2.945282c-0.974213,-1.937355 -1.199036,-1.627602 -2.697845,-2.945282l0,0zm-188.701889,-43.47538c-2.248245,0.93251 -1.648209,1.242477 -2.173294,3.412315c1.199295,0.697426 3.372345,-1.472382 4.12175,-2.402336c0,-0.774933 -0.225311,-1.009979 0,-1.472366c-0.749405,-0.464973 -1.798325,0.232498 -1.948456,0.462387l0,0zm-7.268814,4.574722c0.224335,0 0.59903,0.54245 0.823608,0.54245l0.37471,-1.007431c-0.973984,-0.932503 -1.198318,-2.482384 -1.198318,0.464981l0,0zm174.762329,-0.697433c0,0.849831 1.199036,3.022255 1.724152,1.007393c-0.600037,0 -1.424622,-0.77494 -1.724152,-1.007393l0,0zm8.168335,21.46582c-0.224548,0 -0.599243,0.232483 -0.823578,0.232483c0.674194,4.649094 1.872498,2.168793 0.823578,-0.232483l0,0zm-0.149384,-65.175013c-0.225342,1.707447 1.9487,6.279608 2.847534,7.674505c0.374695,2.247314 0.674164,2.092331 3.372345,2.247314c1.573761,-1.317394 4.721283,-2.014858 5.845428,-3.487228c1.798584,0 2.173248,-0.232491 3.447266,-1.627388c-1.948456,-3.487226 -1.948456,-4.727112 -5.620575,-6.044502c0.974213,-0.232487 -9.217773,3.949585 -9.891998,1.237299l0,0zm-37.471069,144.610178c-0.299805,0 7.943756,0.929916 4.796204,-2.247314c-2.697845,0 -1.873505,-1.549866 -3.297394,-2.014847c0.899292,-2.402328 2.697876,0.617371 3.522247,1.394882c0.599518,0.542465 5.470703,1.627365 2.922699,-1.317383c-3.147552,-3.334839 9.742371,-0.929947 7.419189,-1.70488c1.648712,-4.572144 -0.674469,-0.467545 -3.672119,-4.262177c0,-2.71228 3.971863,-0.774933 5.170929,-0.774933c1.273987,0 0.374725,5.889542 2.622925,5.889542c0.074951,-0.309967 4.871216,-2.482391 6.145203,-2.169846c-1.423859,-0.312546 4.271637,4.107208 4.271637,4.184692c-1.648743,1.704865 -3.372375,4.572144 1.348938,5.037125l1.648712,-3.33226c0.599518,-0.697464 2.847748,-2.867264 3.372345,-0.54245c-2.323151,4.262161 -0.599487,1.394867 2.098358,4.184662c-0.074921,-0.077499 7.793854,-1.239914 6.594818,-0.852432c-1.573761,0.307404 6.444946,7.981873 6.444946,9.066803c0,1.084915 -1.798615,11.546585 -1.49884,12.321533c0.824371,2.78978 1.274017,2.554718 3.372375,2.554718c0.74942,1.939407 -1.423889,2.326889 -2.473053,3.411804c-1.274017,4.959335 -5.620575,4.804871 -9.067902,5.811005c-5.695526,0 -1.348969,8.912857 -1.199066,9.765274c0.599518,2.866745 3.372375,2.014053 7.718964,3.641693c1.049164,-2.790039 5.695526,-7.827133 9.442566,-7.827133c1.199097,-3.719208 -5.395721,-1.859619 -6.220123,-1.859619c-2.697845,-3.25499 0,-2.479279 2.473083,-1.627625c0.674438,0.233261 2.622955,-1.627365 2.622955,-1.627365c0.599518,0.620468 4.721283,4.882629 4.121735,4.882629c4.346588,-3.409454 4.871185,-0.852692 7.41922,2.247055c4.946075,-1.859589 7.194305,-2.324829 3.672089,2.170364c-2.548004,-0.464966 10.191986,1.70433 9.667419,1.472397c0,4.726349 2.847748,-0.774948 2.847748,-1.085693c-0.374725,3.177231 20.683777,-0.77417 18.285645,-0.386703c0.224823,-1.239899 1.948486,-1.317657 2.547974,-2.09259c1.648743,-1.937363 -1.873474,-3.021988 -2.323151,-4.417664c-0.74942,0 -1.273987,1.317886 -2.098358,0.852676c0,-2.944244 -5.470703,-2.169296 -7.793854,-2.944244c13.264557,2.169296 -8.468384,0.541672 -8.468384,-1.783142c0.374725,-1.162415 4.49646,-0.541687 4.871185,-0.541687c2.622925,0 2.098328,-0.697449 0.224792,-1.549866c6.145203,1.472122 7.718964,0.541672 11.990631,1.006882c0.299713,0 4.946136,2.790054 3.747009,1.240189c-0.674408,0 -2.248199,-1.007187 -2.248199,-2.015121c-0.524567,0 0.149902,-4.416626 -2.173279,-4.416626c0.974182,-1.239914 1.049164,-1.317642 -0.299774,-2.014328c0,-1.782364 -1.948486,-5.347076 -4.121796,-5.347076c-3.447266,0 -4.121735,1.859833 -2.398102,-2.169846c-0.149872,-0.387466 -10.117065,-3.409714 -8.843048,-3.257324c5.695557,0.622543 -6.369995,-2.012268 -6.519867,-1.937347c-1.49884,0.700027 -1.948517,3.644775 -3.072601,0.080048c-0.524567,-1.472351 1.423889,-1.549866 1.423889,-2.792343c0,0.700027 -5.021057,-4.027084 -5.695526,-4.027084c0,-2.402313 14.538574,-0.929947 13.264587,-1.397491c-2.24826,-0.539856 3.74704,3.87471 4.346558,4.187256c1.199066,0 3.74707,-0.077469 4.946136,0.154968c0.524597,0.07753 1.648712,0.232498 1.348938,-0.932495c0,-6.041946 -2.323151,-2.864685 -2.323151,-5.421997c1.049133,-0.774933 4.646332,-3.719711 0.599518,-5.502045c-0.374725,-0.232498 -0.224854,-5.192108 0,-5.967056c-4.271637,-4.342224 -7.943756,1.782364 -8.24353,2.014847c-1.423889,-6.431992 -4.271637,0 -4.721283,0.229904c-1.199097,-1.77977 -2.697906,-7.359344 -6.070251,-5.424576c0,-5.11203 -4.421509,0.312546 -4.646332,0.777527c-5.695557,-1.939926 -9.517548,-1.859863 -8.917999,-1.782364c3.447296,0.929916 -8.468353,3.87468 -4.046844,-0.697449c2.173309,-0.774918 -0.524628,-2.867294 -0.374725,-3.642227c2.997681,0 4.571442,-2.479797 3.522278,-3.332214c-1.873535,-3.87468 -8.91803,1.702286 -10.41687,0.774948c-0.82431,1.084885 3.896942,-2.402328 5.021057,-3.719727c-4.796204,-2.867249 0.224854,-3.877289 -6.444916,-4.107178c-4.49646,6.122009 -2.323181,1.472351 -1.49881,-0.619949c-4.121765,-0.077499 -11.091309,2.944778 -12.814972,3.949615c0,-2.012283 0.74942,-4.879547 0.974243,-6.974472c-4.121765,0 -11.540924,2.404877 -13.939056,2.404877c0.299744,-6.819427 0.374695,-6.354492 -4.346558,-8.059341c-6.070251,-1.784958 -1.049194,2.402328 -6.145203,2.402328c-4.346588,0 -4.271637,0.464935 -6.145172,4.184647c1.124084,0.852448 2.473053,1.77977 3.971893,0.929916c0.449646,-0.309937 -4.271637,3.40976 -4.271637,3.40976c-0.899292,-1.937378 -5.470703,-4.109772 -3.372375,-0.464981c0.674469,1.08493 0.299744,2.167267 0.074921,3.254745c-7.718445,2.71228 -0.224823,-2.014816 -4.196686,-3.952164c0,-5.57959 2.098328,3.332214 -4.571655,-11.779099c-3.147034,-2.16983 -2.24823,1.937332 -3.147034,-1.007416c-1.19931,2.712311 -2.922485,5.269577 -5.620575,6.586975c-3.74707,0.927353 0.898773,4.262192 -1.04892,4.572144c1.04892,0.697433 0.748413,6.041962 3.896454,7.67189c-1.798615,0 -0.824615,2.944778 -0.74942,4.029709c-0.075195,-1.317413 5.395966,2.944748 5.470154,2.944748c-1.572998,2.092346 0.300537,2.557297 -0.674194,4.56958c-1.348694,-0.384888 -2.472809,-1.469818 -3.821259,0.080063c0,-3.409729 3.071838,-4.339661 -1.574005,-6.819458c-4.121765,-2.16983 -4.79599,-8.601837 -4.79599,-12.786484c0,-3.797241 1.423645,-3.797241 3.221985,-6.509521c-4.49646,-2.944778 -3.072571,-0.464951 -10.267181,2.867279c0,2.092377 -2.098145,5.269592 -3.29718,8.056808c0,-0.152405 0.74942,2.792343 -0.898819,5.89209c0,4.494659 2.322464,0.155029 0.898819,6.122055c8.018951,6.196915 4.04657,2.944763 12.965332,6.664459c-2.923492,0.542465 -4.721802,1.394867 -1.349426,2.789795c0.374695,0 3.297119,5.734528 6.070251,3.252136c0.44986,0.235077 0.974915,0.777527 0.599243,1.242508c-2.247253,0.464951 -0.74942,3.25473 0.225281,0.384888c0.599335,0 1.423706,0.777512 2.022949,0.467529c2.622925,0.774948 1.19931,-2.479797 2.547729,-2.479797c6.595367,6.896973 2.623962,-3.952179 7.419708,0.232483l0,0zm149.583069,-102.532249c-0.224854,0.155266 -0.74942,0.775719 -0.74942,1.085686c-0.899261,0.155273 -2.473053,0.309715 -2.098328,1.549881c1.049194,0 4.421539,2.479042 4.421539,-0.542953c-0.749451,-0.619453 -0.449677,-1.781868 -1.573792,-2.092613l0,0zm-2.473083,-1.472374c-0.374664,0.077766 -0.82431,0.077766 -0.899261,0.620712c0.449646,0.231987 2.323181,0.774948 2.547974,0c-0.224792,-0.852699 -1.199036,-0.542946 -1.648712,-0.620712l0,0zm-2.922638,-6.044029c-0.374756,0.155262 -0.899353,0.541943 -0.899353,1.084679c0.599518,0.697189 3.072601,0.852676 3.072601,-0.465225c-0.599548,-0.619453 -1.648712,-1.394398 -2.173248,-0.619453l0,0zm-59.428375,18.753029c-0.524597,-0.15448 -1.348969,0 -1.948486,0c0,0.388252 3.297424,7.207436 4.871155,5.114609c1.348938,-1.626595 -2.847717,-5.114609 -2.922668,-5.114609l0,0zm3.222473,-2.015114c-2.622955,0 -0.149902,1.240952 0.899292,1.395439c0.149841,1.084641 0.374664,1.859589 1.798553,1.162399c0,-1.316887 -1.199036,-3.487221 -2.697845,-2.557838l0,0zm32.074829,-3.796936c-0.524658,0.387466 -1.948486,0.542732 -2.17334,1.162407c0.224854,0.232994 3.072571,0 3.597198,-0.232208c0,-0.774933 -0.974243,-0.852692 -1.423859,-0.930199l0,0zm-41.967072,-44.092754c-0.149902,0.61993 0.524597,1.317394 0.674438,1.857258c0.974274,0 2.398132,0.235073 2.398132,-1.547291c-0.599548,-0.697433 -2.323181,-0.77494 -3.072571,-0.309967l0,0zm-17.311401,-7.129465c-0.449677,0.232487 -0.899323,0.852446 -0.899323,1.394897c0.299774,0.38747 2.173309,0.38747 2.772858,0.077505c0.299713,-1.472403 -1.573792,-1.31739 -1.873535,-1.472403l0,0zm-5.096039,-0.464945c-0.374695,0.232487 -0.74939,0.619957 -0.374695,1.31739c0,0.077507 -2.023407,1.934761 -0.674469,2.32482c0.374725,-0.390059 2.398132,-1.782368 2.323151,-2.32482c-0.07489,-0.777525 -1.124115,-0.852446 -1.273987,-1.31739l0,0zm-4.121735,0.074921c-0.374725,0.622511 -0.074921,1.627354 0.599518,1.24247c0,-0.390057 0.299744,-0.619959 0.299744,-0.852446c-0.224792,-0.232458 -0.674408,-0.390024 -0.899261,-0.390024l0,0zm-5.470734,2.712288c0.149902,0.157566 4.721283,-0.152428 5.395813,-0.462391c0,-1.007427 -1.573761,-1.704861 -2.24826,-1.704861c-0.449677,0 -1.049164,0.852415 -1.199036,1.31739c-0.149872,0 -1.948517,0.464945 -1.948517,0.849861l0,0zm9.817291,5.659618c0.899292,-0.54245 1.049164,-1.472372 1.348969,-2.482384c-0.299805,-0.927336 -2.098358,-1.549881 -2.098358,0c0,2.094917 -0.224823,1.707443 -0.974243,2.869854c0.524597,1.31739 0.599548,1.549877 0.599548,3.022285c0.524567,0 1.423859,-2.867302 1.124084,-3.409756l0,0zm15.66272,1.084934c-0.824341,-0.309994 -1.274017,-1.084934 -2.173279,-0.309994c-0.074982,0.077507 -2.922699,1.549877 -2.922699,1.549877c0.224792,1.394897 1.648682,6.12204 2.473053,6.664494c0.524597,0.309963 1.274017,0.154984 1.873535,0.232487c0.674438,0 1.948456,2.092335 2.622925,1.162411c0.299744,-0.38747 0.449646,-1.394897 0.899292,-1.704895c0.674469,-0.387466 2.323181,-0.309959 2.023407,-1.937347c-0.149872,-1.08749 -2.248199,-3.332211 -2.622955,-4.649635c-0.449615,-1.704861 -1.124084,-0.929924 -2.173279,-1.007397l0,0zm2.922699,-2.634815c-1.423889,-0.077473 -1.423889,-1.007425 -2.697906,-1.007425c0,0.155012 -0.07489,0.38747 -0.149872,0.542482c1.199127,0.77494 4.421539,1.472374 2.847778,0.464943l0,0zm50.735199,167.385899c-0.374725,0.310745 -0.6745,0.310745 -1.124176,0.310745c-0.524536,-1.317642 -1.873505,0.308945 -0.674408,1.007156c0,0.698227 -0.074951,2.78978 0.299774,3.253983c0.599518,0 0.899261,-2.169327 1.49881,-2.555756c0.449646,-0.389526 1.124115,-1.783142 0,-2.016129l0,0zm-14.388733,-5.966553c-0.374664,0 -6.070251,1.316925 -3.672089,3.254257c1.723633,1.394623 1.798553,-2.402557 4.121735,-0.464188c-0.074921,-0.077759 3.67215,2.556015 3.74707,0.772858c-0.599518,-1.857513 -2.323181,-3.873672 -4.196716,-3.562927l0,0zm-4.796234,-34.872253c-1.199036,0.077759 -1.49881,1.704361 -0.974243,2.247345c1.049194,0.155228 1.124146,-2.169586 0.974243,-2.247345l0,0zm3.822021,-1.705124c-1.049194,-1.007172 0.524567,-2.016129 -1.873535,-2.016129c0,1.008957 -0.449677,0.311783 0.524567,1.627625c-0.374695,2.867798 -0.599518,3.87677 -2.547974,5.967575l-0.074951,2.091522c1.49881,0.467316 0.824371,-0.850616 2.173309,-0.850616c1.49881,0 1.873505,-1.240906 1.49881,-2.945267c-0.224823,-0.851654 -0.449646,-2.091827 0.674469,-1.782867c0.974243,0.234009 2.24823,1.162384 2.023407,-0.698502c-0.074921,-0.619446 0.224823,-1.471085 0,-2.013046c-0.974243,-0.464935 -1.049164,0 -2.398102,0.619705l0,0zm3.147522,15.575516c0.899261,0.619446 1.348938,-1.315857 2.023407,-1.315857c-0.599518,-2.093613 -1.648712,0.386429 -2.023407,1.315857l0,0zm-43.690735,-74.936142c-3.372314,-1.084648 -2.248199,1.007957 -5.395721,2.712288c-1.423859,3.874702 0.224792,4.727402 0.224792,8.602089c2.548004,0 3.297424,-3.952454 2.622955,-5.889793c1.199066,-4.02993 6.594818,-4.881592 2.547974,-5.424583l0,0zm13.639343,0.852707c-2.398163,-0.387474 -1.873535,-0.309715 -1.873535,1.240158c-1.348938,0.697189 -1.648743,-0.233246 -1.648743,2.789803c0,1.239128 2.847778,3.719429 3.822021,4.33989c0.224854,-0.542702 1.199066,-6.122787 1.199066,-6.200516c-0.224823,-0.541702 -0.899292,-1.937355 -1.49881,-2.169334l0,0zm17.611176,-12.70874c0.149872,0.077499 5.695496,0.077499 5.845398,-0.698227c0.674469,-3.176483 -8.543335,1.937347 -5.845398,0.698227l0,0zm40.767975,5.346809c-0.224823,-0.077759 -0.674469,-0.155487 -0.74939,0.154472c0.374695,1.239922 0.224792,1.473167 0.374695,2.480057c0.824341,0 1.573761,-1.705116 0.374695,-2.634529l0,0zm-60.102814,-12.24456c0.449646,0 0.674469,0.388275 0.674469,0.774948c0,0.387459 -0.224823,0.775734 -0.674469,0.775734c-0.374725,0 -0.6745,-0.388275 -0.6745,-0.775734c0,-0.386673 0.299774,-0.774948 0.6745,-0.774948l0,0zm-307.259308,251.320633c0.374702,0 0.8246,0.773895 0.8246,1.705353c0,1.00589 -0.449898,1.704132 -0.8246,1.704132c-0.44965,0 -0.82436,-0.698242 -0.82436,-1.704132c0,-0.931458 0.37471,-1.705353 0.82436,-1.705353l0,0zm306.959808,-254.88562c0.524048,0 0.824585,0.30896 0.824585,0.774956c0,0.465218 -0.300537,0.773888 -0.824585,0.773888c-0.449921,0 -0.74942,-0.30867 -0.74942,-0.773888c0,-0.465996 0.2995,-0.774956 0.74942,-0.774956l0,0zm0.149353,19.061699c0.44989,0 0.899536,0.62075 0.899536,1.474205c0,0.850616 -0.449646,1.471359 -0.899536,1.471359c-0.448883,0 -0.898773,-0.620743 -0.898773,-1.471359c0,-0.853455 0.44989,-1.474205 0.898773,-1.474205l0,0"/>
    <path fill="#b2b2b2" fill-rule="nonzero" id="path10307" d="m514.797058,281.193176c-1.124084,0 -0.299744,2.402557 1.049194,2.014069c0.6745,-0.153442 0.824402,-0.772888 1.049194,-1.471344c-0.524597,-0.386444 -1.423889,-0.853485 -2.098389,-0.542725l0,0zm8.093689,29.447693c0,0.774933 0.899292,3.795929 2.323181,3.022003c-0.149902,-0.541931 -2.24823,-2.944275 -2.323181,-3.022003l0,0zm2.622986,1.704346c-0.299805,1.006897 0.374573,1.317657 1.049133,1.317657c0,-0.930176 -0.075012,-1.317657 -1.049133,-1.317657l0,0zm-27.803192,-38.978149c-1.199097,0.46524 -2.622925,0.851624 -1.648773,-1.162415c0.674469,0 2.023438,-0.077759 1.049194,-1.317932c0,-1.705109 1.199097,-2.091553 0,-3.643494c-1.423828,0 -3.971863,3.02301 -1.273987,3.02301c-0.149841,0 -1.49884,0.387482 -1.348938,0.698242c-0.374725,0.929443 -1.348938,4.261139 -2.547974,4.261139c-0.974304,2.635559 -1.124146,2.324829 0.149841,4.107971c0.449677,0.697174 1.49884,6.510223 1.274048,7.517181c-0.224854,1.006104 4.046814,7.903839 4.046814,9.764465c0,2.324829 -0.74942,1.78186 0.224823,3.873657c1.273987,0 2.173248,0.077759 2.173248,1.549896c-0.674469,0.31076 -1.873505,0.697174 -2.248199,1.626587c0.374695,1.084686 1.948456,3.643494 1.57373,4.805939c-0.149902,0 -2.847717,4.338867 -0.524597,4.338867c-0.524567,0.774933 3.821991,-5.114594 3.821991,-2.014069c-0.449585,0.308929 -1.873505,6.121002 -1.873505,7.284485c0.374725,0.155151 0.674469,0 1.049194,-0.156616c1.348938,1.705383 4.271576,4.728455 5.845428,1.474182c0.374664,-0.77594 1.648712,-2.790009 1.648712,-3.874664c0.299744,-0.155243 5.695465,-2.713318 5.545624,-2.713318c0.824341,-0.077484 0.674438,-0.929169 0.674438,-1.858582c1.199097,0 1.348999,0.231201 2.547974,-0.466217c0,-0.464966 1.498901,-3.255005 1.798584,-4.105621c-1.57373,-3.799042 0,-4.340973 1.873596,-2.481384c0,0.851685 -0.299744,1.860626 -0.299744,2.71228c3.522217,2.093933 3.147522,-3.71814 2.547974,-5.037109c1.049194,-0.619415 3.07251,-1.084656 3.07251,0.620728c-1.648621,1.006927 -0.974243,3.253967 -0.449524,4.727112c-1.42395,1.315857 -0.824402,1.084961 -0.6745,3.02124c2.473022,1.551941 3.522278,0.077789 4.421509,-2.478241c-2.248291,-7.904877 -0.524597,-4.263184 0,-7.829193c-1.948486,-2.555756 0,-4.026855 2.098328,-4.026855c1.124146,1.857544 2.398193,7.748383 4.946106,7.748383c0.524597,-1.548889 0,-3.023041 0.524597,-4.416656c0.749512,0 1.348938,3.098724 1.873596,3.795898c1.348877,0 5.095947,-1.859589 5.320801,-2.480072c-0.974182,-2.633759 -2.772827,-0.696381 -2.622986,-4.647552c0,8.910797 -5.470703,-14.957123 -5.470703,-5.968597c0.449646,1.317932 0.374695,1.938385 0.374695,3.952484c-1.873474,1.006866 -0.374695,-3.332001 -1.049072,-3.719452c0,-0.466003 0.674377,-3.022003 -0.449768,-3.256042c-2.023376,0 -1.948425,2.403595 -1.573669,3.410492c-0.599609,1.859589 -0.749451,1.859589 -0.899292,3.565002c-2.023438,1.162384 -1.723694,-2.480316 -1.948425,-3.254272c-2.248352,-1.396454 0.149841,0.386475 0.149841,-4.416351c0,-0.389526 0.149902,-4.728424 -1.348999,-3.487244c0,-0.77597 -3.447266,7.981354 -3.222534,7.748352c-1.348816,0 -0.524536,-2.403595 -0.524536,-3.176483c-0.899292,-1.240143 -1.798584,-1.705383 -3.072571,-0.233978c-0.524658,-1.395691 -0.149841,-3.718445 0.299744,-5.036346c-5.021057,0.850586 -7.943726,1.240173 -10.56665,5.734528c-1.124176,0.542694 -1.498871,-0.619659 -2.623016,0.308685c-0.974182,0.931244 -3.522156,1.318726 -2.547974,-1.006866c0.224854,-0.697479 0.974274,-2.402588 0.224854,-2.94455c-1.049194,-0.620453 -1.573792,1.007172 -1.873566,1.395416c-1.273926,-0.077454 -1.049133,-1.084656 -2.173248,-0.155273c-0.449677,1.162415 1.273987,5.423584 -0.674469,4.263245c0,-1.162415 -0.599579,-3.565002 -1.42392,-4.418732c-0.374695,-0.464966 -2.99762,-9.298279 -2.99762,-8.601807c2.173309,-1.162415 1.648682,-3.098999 -0.299805,-4.494415c-0.149872,0.61972 -0.974182,0.852692 -0.899231,1.550934l0,0zm10.341858,142.740234c-0.524628,0.389526 0,2.248352 0.299774,2.636597c1.423889,0 -0.149933,-2.324829 -0.299774,-2.636597l0,0zm-11.466003,-60.676239c-0.524628,0.542725 -3.522217,0.308685 -4.346588,0.698242c1.049194,-0.389557 -3.222504,2.86676 -3.222504,2.633514c0.299835,0.155487 6.369995,0.387451 6.519897,0.77597c1.648712,0 8.318481,2.478241 9.66745,-1.317688c0.74939,-1.783112 2.922638,-0.542938 3.597168,-2.169556c0.224823,-0.698242 0.149872,-1.705139 0.449615,-2.325836c-1.723663,-1.084656 -4.046783,0.542938 -5.695526,0.620697c-2.398071,0 -4.871185,-1.240173 -6.969513,1.084656l0,0zm22.032745,10.30722c-1.798706,1.007172 -2.098389,1.704346 -0.824341,3.176483c0,-0.542694 -0.599609,6.276215 0.974182,4.649628c1.423889,-1.317627 0,-3.331726 1.498779,-4.959351c0,-0.31073 -0.07489,-4.416626 -1.648621,-2.86676l0,0zm-11.540985,18.83075c1.573822,2.867523 0.524536,0.773956 0.674438,2.867523c0.74942,1.548859 1.948517,1.007172 3.147583,1.858856c1.348907,1.239899 0.899292,1.78186 2.24826,0.388245c1.348877,0 2.772827,0.386688 3.971802,-0.155243c1.049255,-0.542999 0.899353,-1.938385 1.57373,-2.634521c2.248291,0 -0.299683,1.162415 1.573792,1.858521c1.498901,0.31076 2.173279,-1.936279 2.473022,-2.790039c-0.374634,-1.006866 -1.198975,-1.084656 -1.573669,-1.935242c0.449646,-1.24118 2.248169,-1.627655 2.248169,-3.178558c-3.297363,-0.773895 -2.772705,-0.542725 -4.196655,2.402557c0.599548,-1.240112 -4.346558,3.254242 -2.697876,2.169586c0,2.24707 -2.248169,0.698242 -2.99762,1.782867c-0.899292,1.240143 -1.573822,-0.077759 -2.622955,-0.387451c-1.348969,-0.077728 -2.548004,-1.860626 -3.822021,-2.247101l0,0zm-138.791077,-162.891724c0,0 -1.873505,3.952194 -1.873505,0.617355c1.723663,-1.779755 -0.374695,-1.779755 -2.023407,-1.004837c-0.674469,1.704865 2.023407,8.446838 2.398132,8.911819c2.32312,0 1.049133,-2.24733 3.447266,-3.644821c0,0 3.372345,-0.539856 3.147552,-0.462357c2.24823,-0.929932 2.622925,-1.162415 2.622925,-3.799805c-0.224823,-0.152405 -3.896942,-3.174667 -4.421539,-1.624771c-2.173279,0 -2.098358,-1.16243 -3.297424,1.007416l0,0zm64.899048,150.415985c-1.199036,2.555756 -1.049164,2.247101 -3.597137,5.345795c1.49884,0 1.348938,0.697205 1.873535,2.169586c-0.599548,2.866516 -0.524597,6.510284 0.374695,7.981354c0.974243,0 0.974243,-3.020996 0.974243,-4.105896c0.224823,3.487244 2.173279,4.804108 1.873505,0.542999c-0.149841,-2.169342 -0.074921,-5.503357 -0.599487,-7.829224c-0.074982,-0.61734 4.346527,-5.96524 -0.899353,-4.104614l0,0zm-89.779449,47.657776c-0.299805,0.697174 -0.299805,1.240143 -1.049225,1.317627c-0.599518,0.153442 -2.772827,-0.620453 -2.098389,1.240143c0.299805,0 1.348969,0.696442 0.824402,1.162415c-0.6745,0.618683 -1.49884,1.238098 -1.723633,2.322784c0,0.542969 0.374664,2.636627 1.199036,2.636627c0.6745,0 1.648682,-0.698273 2.24826,0.077728c0.74942,1.007172 2.098328,0.153412 3.222443,0c0.449646,-0.077728 1.199066,0.153412 1.648712,0.153412c0.224823,-0.695099 0.299744,-1.548828 0,-2.169312c-0.74942,-1.393585 -0.149872,-1.471344 0.074921,-2.711487c0.074951,-1.549927 -0.674438,-1.705139 -1.948456,-1.705139c-0.599518,-1.705353 -0.149872,-2.790039 -2.398071,-2.324799l0,0zm-24.955414,1.626587c-1.274017,0.311768 -0.67453,0.931183 -0.67453,2.324799c-1.199005,0 -4.046814,1.627655 -4.721283,-0.155518c-0.74942,0 -1.948456,-0.772858 -2.697876,-0.386414c0,0.853729 0.674438,1.626587 0.674438,2.557831c0,1.239105 1.948517,-0.233002 2.473083,0c0.524567,0.232208 0.599518,1.239105 0.974243,1.472351c1.273987,-1.240143 3.672089,-0.542938 4.421539,0.619446c0.824341,1.241211 -0.149902,1.394653 -0.224823,2.634552c1.273987,0.853699 2.99765,-0.464966 3.07254,-2.789795c0,-0.697449 -0.599518,-2.556 -1.124084,-2.556c0,-0.853729 -0.599548,-4.185455 -2.173248,-3.721252l0,0zm-44.66449,-24.332092c-2.69812,0 -3.14801,-1.93811 -5.171661,-1.93811c-0.524078,1.162445 -0.973999,6.199524 -1.872528,6.199524c-0.600281,1.937317 3.746063,2.790802 4.195953,3.022003c0.2995,0.156281 2.323151,-1.704376 2.323151,-1.859589c0.74942,-0.542969 2.99765,-0.153473 2.99765,1.395386c-0.973755,0.542755 -2.398376,-0.541901 -2.697876,0.929413c-0.524109,0 -2.323425,0.077515 -1.873535,1.239929c0.225311,0.542969 1.349426,0.542969 1.423645,1.39563c0.375732,2.169342 -0.74942,2.789795 1.574005,3.952209c0,1.471344 1.124115,3.098969 1.948456,4.107941c0.524597,0 0.974243,-0.077728 1.124115,-0.698212c-0.449615,-0.931488 -0.599518,-1.317902 0,-1.938385c0,2.091583 2.622955,1.860626 3.597198,2.403381c-1.873535,0 0.524597,3.951385 0.599548,3.951385c0.224792,-0.77597 -0.374756,-2.24704 1.124084,-2.091583c2.098358,0.387482 -0.224792,2.712341 0.524597,3.641479c1.873535,1.938385 1.124146,-0.230957 2.173309,0.464172c0.599518,1.551941 -2.173309,2.249115 -1.948456,3.954498c0,-0.389526 2.697845,6.121765 3.222443,6.121765c1.648712,-8.989563 2.922699,-7.751465 -0.824371,-15.808502c-1.199036,0 -3.072571,-1.705383 -3.072571,-3.333771c0.224823,-3.33197 -2.622955,-6.508484 -3.072571,-9.531525c-0.899292,-4.49411 -4.946136,-4.49411 -4.946136,-8.368805c-0.2995,-0.233246 -2.997681,-1.783112 -2.997681,-0.233246c0.224609,0.464172 1.199341,2.558075 1.649231,3.02301l0,0zm-8.69339,8.212585c-0.899567,0 -2.023682,0.311798 -2.848267,-0.075684c-2.323425,-1.628418 -3.147034,-1.704102 -5.995331,-1.938171c0,0.698242 -1.497818,7.28418 2.098877,6.354797c0.599274,-0.155243 0.898773,-1.317657 1.19931,-2.015106c2.097809,1.240173 3.29715,2.944489 2.772339,5.269318c0.598999,1.782898 0.374695,3.643524 0.374695,5.34787c0,0.620483 2.697845,2.24707 3.222961,1.627655c1.423615,-1.860657 1.273468,-2.016174 1.273468,-4.416656c-0.525055,-0.311798 -1.423859,-0.698242 -2.098053,-0.698242c-0.299561,-0.77597 -0.299561,-1.860626 -0.075226,-2.5578c1.574005,0 1.49881,-1.627655 1.648224,-2.867828c-1.648224,-0.851624 -0.748413,-2.711212 -1.572998,-4.030151l0,0zm-24.280701,-59.280823c-1.049957,2.71228 -0.525101,2.091827 -3.072861,2.091827c-0.749405,1.93631 1.348709,4.728424 -0.07518,6.897736c-0.674225,1.315857 -0.524857,3.409454 0.525085,1.4711c0.748413,-2.402344 1.423615,-2.169342 2.472565,-0.851685c0.60025,-0.31073 0.224548,-0.541656 0.524078,-1.317657c-0.898788,-2.247009 0.974747,-2.945282 1.799347,-3.952454c0.149399,-1.162415 -1.124115,-4.804871 -2.173035,-4.338867l0,0zm5.17067,5.580109c-0.37468,0.619415 -2.997635,6.508179 -4.046585,5.422455c-1.124084,0.698273 1.198349,6.742523 1.198349,7.130737c1.648926,0.851685 0.74939,3.487244 -0.299561,4.105896c-1.649185,-1.93631 -2.997635,-0.618652 -0.674438,3.10083c0.599258,0.929413 5.920349,-8.524353 6.369995,-9.764496c1.348709,-3.331757 -1.648956,-1.860657 -2.023666,-1.860657c-0.299515,-1.162415 -0.67424,-0.696136 -0.074173,-2.169312c1.947693,0 2.547729,-3.332001 3.146988,-5.114838c-1.723373,-0.153412 -2.997635,0.698181 -3.596909,-0.850616l0,0zm-37.470581,-14.957123c-1.94873,0 -2.17305,-0.464996 -3.07283,1.317902c-1.573761,0 -2.17305,-1.782898 -2.097855,2.091827c-0.974747,1.239868 -1.948715,-0.46521 -1.724152,0.233002c1.948471,0.542999 -4.796234,4.80307 -5.396255,4.80307c-0.448898,1.396423 1.349442,1.240936 1.649216,1.240936c1.798309,0 2.023636,1.704346 3.596664,1.704346c1.19928,-0.541901 -1.048935,-1.704346 0.750397,-2.557831c0,-2.169556 3.371353,-1.781097 4.570663,-2.634521c0,-2.944519 1.199326,-1.393585 1.724152,0.077484c0.44989,1.472382 2.62294,0.309998 5.020554,0c1.49884,-1.704071 -0.149399,-1.084625 1.349457,-2.169312c0.149384,-0.155487 8.392899,0.542694 9.067139,-0.93045c-1.947754,-3.020966 -7.04422,-1.780792 -10.116074,-2.325836c-2.398621,-0.541656 -2.023911,2.481384 -4.646851,1.6297c0.224579,-1.551941 -0.674225,-2.480316 -0.674225,-2.480316l0,0zm51.85878,-15.577332c-1.348663,-0.619659 -0.524048,3.023041 -3.821259,2.790039c-1.124084,4.185455 -1.798325,6.432526 -0.525085,10.695709c1.873535,0 0.599304,-0.853699 2.922729,-0.853699c-0.299774,0.619659 0.225342,-6.432495 0.150146,-6.741486c1.9487,-0.775696 1.273468,-4.572876 1.273468,-5.890564l0,0zm-15.811798,-26.345886c0.97374,-0.077728 4.271133,-0.467255 5.470169,-0.467255c0.524094,1.008972 0.449921,1.084625 -0.224319,2.171356c-1.948715,0 -2.023926,0 -3.072815,1.007172c1.348679,1.393372 1.723373,0.851654 0.748367,3.565765c-2.173004,-0.389313 -1.572998,0.541931 -2.921402,1.780029c-1.199356,-1.4711 -0.824615,-2.789001 -2.098877,-4.416656c0.59903,-0.308685 2.773056,-2.402313 2.098877,-3.640411l0,0zm26.753479,-12.245789c-2.023926,0.93042 -2.098114,0.620697 -2.098114,2.71225c2.323425,1.938354 5.845184,0.697449 8.54303,0.697449c0.374725,0.464966 4.421539,1.860626 5.545654,0.542694c-0.974243,-2.71228 -2.473053,-3.331696 -4.196686,-0.697205c-1.124084,-1.240173 -2.548035,-2.324768 -3.446838,-3.409424c-2.69809,0 -1.200287,1.394348 -4.347046,0.154236l0,0zm-123.803329,-25.107819c-0.973724,0 -0.748413,0.774933 -2.322403,0.774933c0,0.774933 0,1.705383 0,2.480316c0.149384,0 9.292435,1.31665 7.942993,2.014069c1.799332,0.542725 3.897446,-1.316833 5.546402,-1.782104c1.723389,0.465271 1.574005,1.084686 2.098099,3.409515c-0.37471,0.233215 -0.749405,0.233215 -1.19931,-0.309753c0,-2.091797 -2.547745,-0.929382 -3.071854,-0.155243c0,1.395416 -0.300507,0.930176 -1.574005,1.162415c-0.07518,0.542694 -3.82225,5.192322 -4.12175,5.579834c-1.574036,0 -1.49881,-0.231995 -1.948715,1.472107c2.398605,1.085724 3.74704,0.46524 5.69577,2.480316l0.374695,0c2.24826,-2.71225 3.74707,-3.952423 7.41893,-4.571899l-0.824341,3.331726c-0.525085,0.232239 -1.12413,0 -1.723404,-0.232971c0,1.163422 -4.946365,3.410522 0.599274,3.410522c0,-1.859619 4.121765,-2.867798 4.271912,-2.945313c4.721039,0.775757 1.423615,0.620483 3.147018,-1.472382c0,-2.479034 -2.62294,-1.006866 -0.149368,-4.106659c1.9487,0 3.596909,2.402557 3.896439,3.952454c2.174042,-1.240173 1.1241,1.006897 0.150116,2.091614c-0.374695,0 -1.199051,-0.154297 -1.498825,-0.154297c0,2.40155 1.498825,4.648621 2.548004,7.052002c0.59903,-1.23996 0.524841,-5.502106 0.524841,-5.889587c1.198318,1.472168 1.273483,-2.247284 1.198318,-2.402557c1.200302,-1.317932 -0.59903,-0.387482 1.9487,-2.015076c0,-1.394379 -1.723389,-1.937347 -1.723389,-3.177521c0.299774,-1.162384 1.348694,-1.626617 2.098099,-2.634552c0,-1.084625 -0.599289,-1.78183 -1.199295,-2.402557c1.424622,-1.704102 1.799332,-2.324799 -0.373718,-3.022034c-1.124115,1.549896 -0.824585,1.937378 -2.173035,3.487274c-1.874542,-0.46524 -5.322083,-1.240173 -6.446182,-2.712311c0.600037,-0.852661 0.750397,-1.007935 1.649185,-1.937347l2.622955,0l0.449646,-2.402557c-0.674225,-0.851669 -2.173035,-0.619446 -2.173035,-1.704117c-1.798355,0 -1.349457,0.697235 -1.349457,1.704117c-2.173035,0 -0.749405,0.31073 -2.922455,1.162384c-1.57402,-0.929138 -3.89743,-0.464172 -5.095749,1.008209c-1.19931,0 -1.648956,-1.240173 -2.923431,-1.240173c-0.373749,2.634521 -9.367676,0.697205 -9.367676,0.697205l0,0zm-72.24279,-96.55513c-14.688721,31.307556 -31.400269,58.351883 -48.26203,88.18605c-1.199257,2.636566 1.798391,1.783142 3.072783,1.783142c1.572989,0 -0.374706,2.636566 1.273426,3.721237c1.57394,1.005875 3.672894,-3.488251 3.897316,-0.620728c0.299564,2.324844 -2.62294,2.789017 0,5.346054c-0.150257,1.628448 1.274399,5.503082 2.022839,7.364014c0,0.850616 0.300537,2.091522 -0.524017,2.633484c-1.199257,0.230927 -2.847366,0.620453 -1.273399,2.634521c1.648106,2.635529 10.416622,-4.650665 9.741379,-3.719177c1.649078,0 3.748032,-0.853729 4.871178,1.4711c-0.224453,-0.619446 3.372406,12.090332 3.372406,12.399048c1.648949,3.720245 0.674213,9.611023 1.124115,13.794403c0.300514,2.169586 0.374706,4.961426 0.374706,7.207733c3.147781,4.572937 5.695778,7.671631 7.86882,11.857086c0,1.240173 -0.749416,2.478271 -1.124119,3.487244c-2.997646,9.764465 0.749409,3.409454 -2.022907,7.670593c-0.749413,0 -2.922466,-0.230927 -2.922466,1.0849c0.299522,0.233002 0.674229,0.698242 0.973743,0.931244c0,1.238068 -1.798332,3.254181 -2.69788,3.254181c-0.674473,1.938416 -0.149384,4.649658 -0.823605,6.585999c-0.300514,0 -1.424633,-0.153442 -1.649204,0c1.649204,2.866486 1.873524,6.818939 2.698124,9.300293c3.671875,0 1.648209,-3.797211 0.748421,-5.501312c0,-1.705353 0.225327,-1.938354 1.349438,-1.163422c0,1.627625 0.150387,2.014038 0.898792,3.254211c2.098858,0 3.072842,0.775696 3.072842,2.867554c0,4.107697 -1.124123,0.698212 -0.149384,4.030212c0.449898,0.464172 0.898788,5.114594 0.8246,5.889526c-0.374702,2.325867 1.57402,2.71228 0.973743,4.648834c-0.374714,0.155304 -1.64896,0.852478 -1.64896,1.395447c2.09885,1.471069 0.8246,3.254211 -0.823605,4.338837c0.674221,0.541718 3.221973,0 2.547752,2.0159c-1.64896,0 -1.423634,3.640656 -1.498821,4.183624c1.199303,0.852692 0.898785,3.256042 2.772324,3.564972c0.600029,0.155273 3.072838,-0.542938 3.072838,0.853485c1.648949,0 1.498817,3.796204 1.04892,5.036102c-3.896439,-3.487244 -7.643501,-5.036102 -9.891731,-9.607971c-1.948723,0 -1.798347,1.704376 -3.597675,1.704376c1.199306,2.634521 0.974739,3.098663 3.222961,4.49411c0,0.46521 -1.349438,4.95932 -1.124111,3.874695c5.995296,4.107666 0.374706,2.402557 8.468102,6.04425c0.524841,1.162415 -1.798584,1.628418 -1.57402,2.635559c0.600037,2.867584 4.796989,7.826111 7.494125,8.446594c0,0.386444 0.8246,1.317657 0.150131,1.78186c0.749413,2.169556 2.622948,4.495422 4.496468,4.417694c0.224571,0.774902 0.74942,0.232971 0.74942,1.781799c0.374702,0.30896 2.472809,2.712311 2.472809,0.387482c0.600021,-0.773926 1.498817,0.541962 1.948723,-0.929138c0.67421,-2.790039 -0.749428,-0.155518 -0.749428,-2.559113c0.225334,-0.308685 0.449654,-0.541687 0.524849,-1.006897c-0.674225,-1.626587 -1.948723,-0.308685 -2.773079,-0.772888c0,-0.853699 0.974739,-0.542969 1.124123,-1.162384c0.150131,-0.311829 0.524834,-3.488281 0.524834,-4.108002c-5.321075,-3.721222 -2.548744,-1.705109 -7.944008,-9.764221c-0.449646,-1.162415 1.498825,-3.56601 0.224564,-4.416626c1.274261,0.850616 2.62294,1.006927 3.972389,1.471069c1.124115,0.310791 3.747055,2.169556 1.048927,3.487244c-0.674225,1.627655 -1.199066,2.634796 1.049171,2.634796c1.124123,0 2.24823,2.402313 2.24823,3.875488c-0.599274,0.465179 -1.273491,-0.697174 -1.87352,-0.697174c-0.299759,0.772827 1.049919,2.402557 1.573769,2.633728c1.948715,0.931213 3.521729,-2.014038 3.521729,2.402313c-1.947723,1.007172 0.600037,1.860626 0.225327,3.409729c0.599274,0.309753 1.498825,1.163208 2.323425,1.163208c19.78421,4.958557 53.208221,8.602081 88.131073,8.911011c35.07196,0.541687 48.710754,-1.007141 56.280075,-1.783112c15.0634,-1.1604 24.805771,-2.555756 40.543411,-6.43045c0.824371,-0.31073 0.600006,-1.473175 0.824371,-2.169586c1.348663,0 2.173279,-2.093628 1.573975,-3.1008c-0.674164,-0.697174 -0.824615,-0.774933 -1.648956,-1.626617c-0.525024,-0.464966 2.098877,-1.084625 2.098877,-1.162415c0,-0.387421 0.224304,-2.71225 0.524078,-2.867493c0.524872,0.851654 0.674225,1.705109 2.098358,1.705109c0.299774,0.774963 1.124115,2.789001 0,3.023254c-0.674683,0.074707 -2.023407,0.69519 -1.348938,1.704132c1.199036,0 3.072571,-1.938385 3.522247,0.153442c0.299774,1.084686 1.199066,0.542969 1.798584,0.542969c0,0.697174 -0.974274,1.78183 -2.622925,1.78183c-1.498871,0 -1.199066,0.155518 -1.274048,2.016174c-0.674438,0.230927 -0.899017,0.929169 -0.749603,1.705109l3.222717,0.153412c0.524536,0 1.348938,-0.618652 1.798553,-0.075653c0,2.556 2.922729,0.231171 3.222443,1.548859c2.098389,0 1.199097,-4.263214 1.274017,-4.882629c1.274017,0 4.571442,2.5578 5.320862,3.333771c-1.274048,3.020996 0.899231,1.548859 0.974213,1.084625c1.199005,0 2.098358,1.240204 3.597198,0.773926c3.971832,-0.929138 0.07489,0.31076 2.99762,0.774933c1.573761,0.46524 3.222473,-1.395416 4.421539,-2.091553c1.948486,-1.317902 2.323181,0.929138 4.49646,0.154205c1.348938,-0.464966 2.473083,-0.773895 3.971893,-0.387482c4.421509,1.549896 0.074951,-1.006897 2.473083,-1.006897c0.674438,-1.704315 0.224762,-3.951416 1.423859,-5.425598c1.798584,0 -1.348938,3.799011 2.098358,1.395416c0,-0.464203 -0.149872,-2.324829 0.449615,-2.633514c0.374695,0.231171 1.423889,0.851654 1.873535,0.618683c0.374695,-1.394653 1.199097,-1.472412 0.899323,-3.797211c-0.074951,-0.620453 -1.049194,-0.851654 -1.124146,-1.626587c-0.449615,-1.938141 4.421539,-0.234039 4.796265,-0.464966c1.948456,-1.007172 2.547943,0.929108 3.896912,0.077484c0,-2.635559 4.346619,0.542969 4.946167,0.77417c0.599487,1.084595 3.597137,6.199493 5.470673,5.656525c2.24826,0 6.594849,-2.324829 8.543304,-1.704346c0.449646,1.162445 -3.522217,2.86676 -2.023407,4.649628c1.049133,1.317932 2.922668,-0.851654 3.74704,0.233276c0,1.393341 -0.224792,4.18335 1.124115,4.18335c2.547974,0 3.072571,-0.153442 0.899292,1.705383c0,2.324829 0.149872,2.247101 2.473083,2.247101c0.374695,-0.542969 1.648682,-2.634552 2.32312,-1.316895c0.374756,0.773926 -0.149872,2.014038 0.449677,2.634521c0.374695,0.31076 2.922699,-1.393311 3.072632,-1.393311c3.82196,0 7.49408,-1.474213 11.24115,-1.860657c0.899292,0.851654 2.99765,2.480072 0,3.253967c0.74939,-0.155212 -3.74707,-1.317627 -1.798615,1.860657c2.098358,3.487213 2.023407,0.233215 3.74704,0.233215c2.473083,2.711273 0.974274,1.548859 2.323212,1.548859c0,-4.494354 0.599548,-2.093872 0.599548,-3.873657c-0.449677,-0.311798 -1.274048,-0.620697 -2.023438,-0.620697c-0.824341,-2.093658 1.124115,-1.626373 2.023438,-1.317688c0.524567,0.077728 1.348907,-0.308685 1.348907,-1.007172c2.173309,-1.162384 3.522247,-0.542694 5.545685,-0.542694c1.049133,2.479279 -1.648743,0.309723 2.922668,2.091797c0.524597,1.472168 -1.199036,2.867554 1.648712,2.867554c0.524628,1.395386 3.522247,2.091827 4.571411,3.176483c-0.299744,0.853729 -0.824341,1.317932 -1.648712,1.317932c-0.299805,0 0.524597,2.867523 0.524597,3.100525c-1.199066,0 -3.372345,-1.55069 -4.346588,-1.55069c-1.348969,0 -2.473053,0.774963 -3.372406,-0.309967c-0.299683,-0.386444 0.074982,-1.548828 -0.449585,-1.548828c-2.023438,-0.233002 -0.599518,0.696381 -1.348969,-1.008972c-0.74939,0 -4.346558,-1.315826 -4.346558,1.086731c1.199036,0.773895 3.522217,-0.233002 3.522217,2.556c0.374725,0.234039 0.974243,1.162415 1.124115,1.705139c-0.299774,2.867767 -1.273987,6.199493 -1.273987,9.14389c0.449646,0 0.899261,0.078705 1.199066,0.2341c0.299744,4.725281 0.524597,1.704254 0.899292,5.036072c0.074921,0.929352 -2.023407,2.790039 -2.548035,3.563904c0,1.706299 -0.599487,3.487274 -0.374725,5.116852c0.524628,3.097748 -1.948425,3.409546 1.723663,3.409546c1.199097,0 -0.299713,2.169434 -0.74939,2.400482c-2.847748,0.388489 -2.622955,-0.773956 -3.072571,3.178467c1.49884,0 3.372345,0.54184 4.946106,0.464142c5.096008,-1.781952 0.299774,-2.016052 0.299774,-3.331818c3.522247,-4.107819 1.798584,1.93634 4.121765,-3.023071c1.124146,0 2.922699,-3.796021 3.447266,-4.727325c1.42392,0 9.367676,1.31778 8.468384,-1.705292c-0.599548,0 -2.173279,-0.464172 -2.847778,-0.69519c0.6745,-0.931396 2.398102,-2.016083 3.297424,-2.324829c1.573761,-0.46521 2.622925,-3.100769 4.196686,-3.100769l2.323181,0c0.374725,-1.627625 -0.74939,-1.472229 -1.049164,-2.403534c0,0 -2.173309,-5.036133 -3.597168,-1.162415c-1.274017,0 -2.398132,2.093719 -3.74707,1.318817c0.074921,0 -2.847748,0.697235 1.723633,-5.270264c0.824341,-4.105652 0.824341,-3.176514 3.821991,-4.183411c2.098389,-0.77597 0.449677,-2.714355 3.447327,-3.87674c1.423859,-0.695129 2.622955,-0.464203 4.196686,-0.464203c3.971863,3.797974 1.049225,1.162415 3.147522,0.61969c0,-1.626617 -0.74942,-3.33197 0.149902,-4.880798c0.74939,-1.627655 4.271637,-3.721313 5.845398,-4.72821c0,-3.176453 2.398102,-8.833252 5.320831,-9.919952c0,-1.238129 9.142792,-7.670624 11.540955,-7.748383l8.768127,-3.642487c1.798553,0 1.049133,-3.02124 3.147522,-3.02124c0.599518,1.704346 0.74942,1.007172 1.49881,0.464172c0,-0.853699 -0.224823,-1.548828 -0.599518,-2.324768c1.498779,-4.029938 -0.524628,-5.890839 -0.824371,-9.300323c-2.323181,-1.393311 -1.049164,-6.663696 -1.049164,-9.219482c0,-7.828156 1.199036,-6.744507 8.243439,-9.14502c7.194397,1.316864 8.693268,12.630188 12.215485,16.351471c1.423889,1.471344 3.222504,-0.46524 3.597168,-1.318726c2.023407,1.006927 5.695557,-1.315826 5.545654,-4.029144c-0.074982,-1.084656 -1.798584,-3.410522 0.149902,-3.410522c0.224823,0.85376 0.149872,1.627625 0.524567,2.48111c2.023438,0.155518 5.021057,-1.006897 3.597168,-4.805878c0.299774,-1.935303 1.873566,-2.169342 2.24823,-3.873688c0,-0.542969 0,-1.240173 0.524567,-1.549896c0.824432,2.169312 0.074951,2.555786 -0.374664,4.804138c-0.299713,2.480042 1.57373,0.697144 1.57373,-0.153442c0.374725,-0.542969 1.348999,-1.31897 1.573853,-2.016113c0.899231,-0.698242 2.547943,0.388489 3.222412,-1.472168c1.273987,0 1.798615,-1.859589 3.072601,-1.859589c-1.348938,7.672699 -4.721313,2.866486 -6.220093,6.74118c-3.297455,0.61972 -3.222504,3.1008 -2.92276,5.03714c-0.224792,1.39566 -1.273987,1.009186 -2.023407,1.39566c-0.224792,0.233002 -0.899261,6.354736 0.824371,4.185455c0.074951,1.393311 -0.824371,2.633484 -0.449615,4.029938c2.697845,2.86673 1.273956,1.315857 3.971832,2.86673c0.674469,2.247101 3.896973,3.176514 5.92038,2.400513c1.124084,-0.153412 -1.348938,-2.711273 -1.423889,-3.176453c0.749359,-2.63559 2.173279,-0.619446 2.547974,-3.178558c-1.798615,-1.4711 -1.57373,-0.928131 -0.599518,-3.331726c0.224823,-1.626587 1.723663,-2.24707 1.573792,-3.795898c-0.224792,-2.559113 -1.873535,-3.023071 1.723602,-3.643799c-0.974213,0.467285 4.946106,-7.981354 4.646393,-9.29718c-0.374695,-1.008972 -1.948486,0.851654 -1.948486,-0.233002c0,-1.549866 2.098358,-1.318939 3.74704,-1.627625c0.749451,-0.155518 0.149933,-2.169586 0.674469,-2.633484c0.824402,-0.698486 2.17334,0.463898 2.473083,-0.542999c0.674469,-2.249115 3.447327,-3.256042 3.447327,-5.116913c-0.899353,-0.463959 -2.17334,-0.541687 -3.297424,0.311768c-0.6745,0.541962 -0.6745,-0.387451 -0.899323,-1.705139c0.524567,-1.626587 2.24823,-1.938354 2.622986,-3.176453c1.423889,0 1.798615,-1.086761 1.798615,-2.557831c0.449615,-1.860626 1.648682,-2.091797 1.648682,-4.185425c-1.49884,-2.247314 -2.922729,-0.308929 -3.822052,1.317657c-0.524567,0.233002 -1.049133,-0.155273 -1.348907,-0.386444c0.599518,-1.627655 0.299774,-5.114868 -1.049225,-5.270142c-2.622864,-0.31073 -2.922638,-1.162384 -1.873505,-3.565979c-1.199097,-1.704346 -3.297394,0.234009 -3.297394,1.860626c-0.374664,2.403595 1.199036,2.634521 1.199036,4.494385c-1.273987,1.549896 -0.224823,4.338654 -0.224823,6.432526c0.224823,0.078766 1.648712,4.338867 2.173279,5.037079c-0.224823,0.698242 -0.824341,1.938385 -1.348938,2.324829c-1.348907,1.240143 -1.273956,-1.704315 -1.573761,-1.626587c-1.723602,0 -1.798553,1.006897 -2.24826,2.400513l-3.447205,2.480316c-1.348999,-0.698456 -2.323212,-0.850647 -3.597198,1.162445c-1.348969,1.860596 -2.548004,2.324768 -4.046844,0.542664c-0.824371,-1.084686 -3.07254,-0.077759 -4.046875,0.233002c-1.648651,0.542969 -2.847717,-2.402283 -3.672058,-1.93811c-1.948517,0.853485 -0.149841,1.62735 -1.573761,1.162445l0,-4.494415c-1.199066,-0.698212 -3.072632,-1.162415 -3.67215,0.387451c-0.149841,0.774933 -1.873505,0.852692 0.074951,-1.549866c0.449707,-1.548859 -0.224792,-1.084686 -0.74942,-2.711273c-0.224792,0 1.199127,-4.650665 0.074951,-4.030212c-0.599457,1.626587 -2.922638,1.471375 -4.121765,2.247345c0,1.162384 -0.824341,3.795898 -1.948425,3.795898c-1.049225,-2.324799 -1.348999,-1.393616 -3.447296,-1.548828c-3.822083,-0.542969 -0.374756,-3.176483 0.374664,-4.263214c0.374756,0 4.196716,-0.386414 5.021057,-0.851654c0.599548,-3.873657 0.224854,-0.233002 1.348969,-2.945282c0.374664,-1.084686 0.449677,-1.782104 1.348907,-2.402557c2.248322,-1.315857 0,-3.409485 -1.273987,-4.183411c0,-4.263214 -8.843018,-2.093872 -9.592438,-0.774902c-5.24588,8.290039 -11.690887,12.863159 -15.213043,22.473236c-1.873535,4.64859 -0.974304,9.453461 -2.548065,13.870087c-0.374695,1.162445 0.149933,3.643524 -0.974213,4.34198c0,0 0.449646,-11.39209 0.899292,-14.028717c0.749451,-4.029144 1.49881,-7.903809 1.49881,-11.313354c0.074951,-1.782867 -0.749359,-3.409454 1.348969,-3.409454c1.049164,-3.098724 -2.473053,-1.084656 2.24823,-3.409454l1.199036,-5.03714c-0.074921,-1.938354 -0.299774,-8.602081 2.548035,-9.300293c2.548004,-0.541931 5.770386,-6.430695 6.819611,-6.430695c4.046875,-0.466003 7.569031,-4.418457 9.817352,-7.1297c2.098267,-0.929413 3.522156,-0.620728 4.046844,-2.790039c1.049133,0 1.873505,1.860626 2.997589,0.698212c0.974213,-1.162384 4.271637,-5.192596 4.721283,-6.819977c0.974243,0 2.922699,0.464966 3.82196,0c0,0 -0.149841,-2.86676 -0.149841,-3.33197l1.49884,-4.727386c-0.974213,-3.409515 -2.24826,-4.416382 -0.299744,-8.446594l7.718933,-12.94281c1.124115,-2.400482 1.199036,-3.176453 0.149841,-5.734283c-0.824371,0 -2.547974,-0.309967 -3.222504,-0.542969c1.274048,0.233002 -5.470703,-8.910767 -4.871155,-7.439636c0,-0.308716 -4.571442,-3.254013 -5.695496,-3.254013c-0.524628,1.396469 -2.548035,1.705124 -3.447327,3.254013c-8.618256,-3.952499 -2.99765,-0.851685 -8.2435,-0.851685c-0.67453,-1.781876 2.622925,-5.346832 -0.824371,-5.734268c-1.049133,2.867752 -2.697876,2.712219 -5.021118,2.014023c-1.348877,-0.308685 -1.723633,1.705399 -2.39801,2.557831c-2.922729,0 -1.498901,-2.090546 -3.672119,-0.697189c0,3.100784 -2.697937,-2.790054 -2.697937,3.178543c-2.323151,3.020966 -5.395721,-4.65065 -5.470703,-4.65065c-2.023407,3.020981 -0.674438,1.627609 -4.49646,1.627609c0,-2.324829 -3.297424,-1.162415 -4.571411,-0.929413c-1.124084,-1.395416 -2.173309,-1.240173 -3.522217,-2.093613c0,-1.549118 0.824341,-2.711533 0.824341,-4.030182c0,-1.083633 -2.697876,-3.951447 -3.672089,-3.795944c-6.74472,1.626602 -1.648743,-3.952438 -6.295105,-4.262146c-2.547974,-0.38855 -2.173279,0.231934 -4.421478,1.23912c-2.398132,-2.479294 2.473022,-3.254257 -2.622986,-3.254257c0,-1.549866 1.124146,-5.037079 -2.098358,-3.719437c-1.798584,0.697464 -11.615875,-5.735321 -12.365295,-6.045044c-0.074921,0.233017 -0.449646,0.774918 -0.449646,1.007156c-0.374695,0 -2.772797,-2.091812 -2.772797,-2.324036c-0.299774,-1.395401 -0.524597,-2.403351 -1.798615,-2.789764c-1.049164,-0.233276 -1.573761,1.006882 -1.573761,1.704086c1.573761,0.930435 0,2.402557 0.899292,3.409714c0,1.62738 2.772858,3.564728 2.173309,4.959351c-0.299774,-0.076706 -3.072601,-1.859573 -3.072601,0c0.6745,1.47316 2.473053,1.706161 3.522247,2.015106c1.049194,0.155243 1.049194,4.339661 2.473053,4.339661c0.374725,1.008224 -0.674469,2.402573 -0.224823,3.487244c0.449646,0.542953 0.599548,0.774933 0.974213,1.39566c-3.447266,-0.852707 -1.498779,2.247055 -1.498779,4.107712c-4.046814,0 -2.697876,2.014023 -2.697876,5.734283c-1.49881,0.773911 -3.67215,-2.713318 -4.571442,-2.713318c-0.374664,0.388474 -0.824371,1.009201 -0.824371,1.628647c-2.398102,0 0.599579,-3.333801 -3.07254,-3.333801c-1.124146,1.395401 -2.473083,0.853485 -3.822021,1.62944c0.524567,1.780045 0.674438,3.332016 -2.023407,2.556c-1.273987,-0.309692 -0.974213,-1.93837 0.149872,-2.169556c0.74942,-0.077499 0.74942,0.231186 1.348938,-0.386444c-0.74939,-1.62944 -1.124084,-3.488235 -2.473022,-4.65065c-1.948486,0.154465 -1.873535,0.076721 -2.323181,2.400482c0,0 0,-3.562897 0.074921,-3.950348c-1.423859,-2.014862 -2.24823,-0.233032 -4.346619,-1.473175c0,0 4.196747,-1.62735 1.49881,-2.944275c-0.82431,-2.867767 -0.674408,-6.664734 -2.622894,-8.524307c-1.873535,-1.627655 -2.173309,2.402557 -2.173309,2.324799c-1.348938,0.541946 -8.318451,0.309738 -6.894592,0.309738c-0.299774,0.387451 -1.348938,1.162415 -1.723602,1.162415c-2.323242,-5.424606 -0.6745,-2.324829 -5.620605,-4.804886c-2.173309,-1.394653 -8.018707,-1.007187 -9.367615,-2.711533c-1.798615,0 -6.519928,3.56395 -7.569122,4.184692c-0.599518,0.386414 -0.674469,0.541672 -0.524567,1.394348c0.299805,1.782883 -1.348969,-0.155228 -1.798584,-0.309708c-1.49881,-0.155487 -2.398102,1.859589 -3.74704,0.774933c-0.6745,-0.542953 -1.573822,-1.705368 -2.622955,-0.620453c0.224823,-0.232224 -6.070251,0.620453 -3.222473,2.324814c0,0.930161 -1.648682,0.620453 -1.124115,2.24704c0.524567,2.015137 2.622955,6.122818 4.046814,7.827194c1.348907,1.395401 2.098358,0.853455 2.398132,2.480042c0.449646,3.176468 -0.674469,0.30867 -0.674469,2.558838c2.098328,1.393616 0.374695,4.260361 3.297424,2.711273c1.199066,-0.698227 1.124115,1.936569 1.723602,2.633743c1.948486,3.332764 6.220154,3.023071 2.847778,7.052979c0,3.874725 -1.723633,5.03714 -1.723633,9.066284c0,3.332031 4.871155,3.02301 6.070221,5.966553c0.674469,0 1.873535,0.232971 2.548004,-0.153473c6.519897,7.593109 8.843048,12.39798 13.864105,15.496735c0.299774,1.860626 0.899323,2.558838 -0.974213,3.564941c0,4.650726 -3.67215,10.850189 -3.67215,14.723877c-1.723633,1.240173 -3.522217,3.643494 -4.271606,4.728485c-0.74942,1.084564 0.674469,1.937317 1.199066,3.252869c4.871155,0.77597 7.793884,10.696014 10.266937,14.570679c0.299744,1.93634 -0.74942,7.439423 1.498779,4.650665c0.449646,2.013062 2.24826,6.741211 1.573792,8.755249c-0.449646,0.233002 -1.723633,-1.316833 -2.398102,-0.851624c-0.674469,0.851624 2.023376,5.887726 -0.824371,5.887726c-1.124084,-1.393341 -4.571411,-1.779755 -5.695526,-1.704102c-0.449677,-1.0849 -13.489441,-11.467804 -14.9133,-12.554535c-0.974213,-6.508209 -1.124115,-2.633484 -1.873535,-6.741425c-1.798584,-1.006927 -2.697876,-3.952209 -4.196686,-5.81311c0,-1.704071 -1.274017,-7.283142 -2.548004,-8.833038c-3.147552,0.233063 -8.16861,-1.395355 -10.866455,3.176483c-0.899353,0 -4.871185,-0.464172 -5.320862,0.776001c-1.573761,0 -3.222473,-1.627655 -4.721283,-1.627655c0.824371,0.077789 -9.74234,-1.78183 -10.266907,-1.473114c-1.648743,1.473114 -3.372375,-1.627686 -3.67215,-3.719208c-5.770508,-0.850647 -6.369965,-1.471375 -11.391052,-1.471375c-0.374695,-2.015869 -2.847748,0.696442 -3.896942,-1.705109c-10.865723,-6.510254 -5.695557,3.796936 -12.740234,3.796936c-1.72345,-0.386414 -0.824615,-5.501312 -2.472809,-5.501312c0,0 -6.070221,-10.075226 -7.044281,-11.316406c-3.372314,2.016113 -2.323364,-2.711273 -4.046509,3.334045c-0.674255,-0.388519 -1.94873,-2.402588 -1.94873,-3.409729c-3.072845,-1.55069 -3.522491,-2.24707 -3.597672,-5.967285l-0.149414,-7.361969c0,-1.317902 -2.248215,-3.176453 -2.248215,-3.952454c1.723389,-1.084625 1.57402,-0.464142 2.248215,-2.324799c3.67189,-13.329224 4.645889,-8.368805 2.997665,-12.55426c1.19931,-3.253204 1.49881,-1.006134 1.49881,-4.958618c0.525085,-0.233002 3.896484,-2.16925 2.547791,-3.02301c0.674469,-2.169312 3.071777,-0.464172 -0.524841,-2.480072c1.573975,-0.309967 6.44516,-2.401535 7.045197,-3.254227c-0.075226,-3.643784 -0.974701,-4.338867 -4.272125,-4.338867c-2.023712,-2.63559 -2.997681,-1.240173 -4.270935,-2.946335c1.198303,-1.471375 3.371399,-0.697189 4.270935,0.46521c1.573975,0 3.596893,-0.154465 4.94632,-0.46521c0.824615,-2.323792 1.123138,-3.641708 2.098175,-5.579041c1.57373,0 2.922424,3.719452 4.121704,-0.697189c0,-0.233002 4.49649,-4.649658 4.49649,-7.28418c-1.573761,-1.162399 0.374725,-5.657852 1.199036,-6.586975c-7.943695,-0.774963 -6.294769,0.464951 -10.191986,0.464951c-0.44989,-1.47316 -3.971619,-2.014832 -5.470459,-3.874695c8.917755,-1.705124 2.697144,0.464188 7.49411,0.464188l0.29953,1.472382c4.946106,0 2.848511,1.317642 5.545654,-0.774155c0.674438,-1.938126 1.124115,-3.720245 1.124115,-5.81282c1.348907,-1.704361 1.49881,-3.254242 0,-5.113831c-2.323212,0 4.046783,-8.67984 3.522247,-1.472382c2.023407,1.007156 1.723633,0.46521 2.398071,-1.240936c0.374725,0.232986 1.124146,1.395401 1.723633,1.395401c0.824402,-2.324829 -1.948425,-2.86676 -3.297333,-3.874695c-0.599548,-1.472122 5.020996,-3.719208 5.020996,-0.465225c-1.573792,1.705399 1.348999,1.240158 2.173279,2.247314c0.599579,-0.774155 1.573792,-2.247314 1.573792,-3.254211c-0.149902,-1.627655 1.57373,-2.634552 2.473083,-3.87471c-0.599548,-1.240158 -0.074951,-1.860641 0.82431,-2.867798c0,-1.316101 -0.82431,-3.408432 -0.82431,-5.115875c-1.873535,0 -2.622986,-1.314819 -2.622986,-3.252167c-0.449585,0.309967 -1.049133,1.237305 -1.423889,1.782364c0.224854,0 -4.121704,-7.129456 -4.121704,-7.129456c0,-1.47496 0.74939,-1.937347 1.948425,-3.177231c1.124146,-1.549866 0.074951,-2.092361 -1.723663,-0.929962c-0.899231,-0.619904 0.224854,-2.479782 0.224854,-3.409714c-2.548004,0 -1.199066,0 -2.398102,-1.472366c-3.447296,1.782349 -3.672119,-3.564743 -6.220123,-2.712296c0,0 -3.521729,3.874695 -3.521729,2.479813c-1.200317,0.232483 -1.9487,-0.774963 -3.148071,0c-2.097809,-3.642227 -2.023621,0.232483 -1.198975,1.394882c-0.150391,0.774948 0.82431,2.014816 1.198975,2.557281c0,1.007416 0,2.014847 0,3.099762c2.548035,1.239914 3.148071,1.627365 3.148071,2.867294c-1.873535,1.937347 -2.023926,1.007401 -0.374756,3.022232c0,4.649658 0.748474,2.712311 0.748474,5.347092c-3.071869,0 -1.422638,4.338623 -0.373718,5.346573c0,3.022278 -2.698151,2.40155 -2.698151,4.881866c-1.724152,0 -8.318726,-8.291077 -6.295746,-11.003357c-0.674286,-3.564728 -2.173096,-4.417191 -3.896484,-6.509506c-3.74704,-1.162399 0.74939,-2.71228 -3.522491,-2.71228c0,9.299271 2.398376,-0.774948 -0.149384,11.236618c0.599304,1.782379 -2.173065,-7.904358 -2.773071,-6.357086c-5.170959,-1.23732 -1.948746,-0.849854 -5.545639,-2.632233c2.023895,-2.792343 1.948715,-3.642197 -0.899536,-3.487213c0,0.852448 -3.896469,2.402328 -0.823639,-2.169815c-0.600006,-1.549866 -0.675217,-1.397476 -1.948715,-2.24733c0,-2.169846 1.948715,-0.929932 2.772354,-0.929932c-0.074188,-0.545044 -5.845169,-6.974442 -6.669495,-7.284424c-1.947754,-1.317413 -4.346359,-1.549866 -5.095779,-4.959625c-0.74942,0 -2.09787,-0.700027 -2.698135,-1.394897c0,-3.954742 -2.622925,1.394897 -2.92247,1.937347c0.898804,1.082352 2.098145,3.487213 -0.8246,2.557312c-0.824326,1.007416 -0.2995,1.859863 -1.723129,1.859863c0,2.867279 0.37468,5.189514 0.37468,7.749405c-1.349411,2.014832 1.273514,5.657028 2.17305,7.051926c2.322433,0 6.969284,2.32225 9.217529,2.944778c2.398361,0 2.098846,-0.309967 2.098846,1.239914c-0.675232,0.464951 -3.748032,0.464951 -3.748032,0.464951c0,0.54245 -0.149399,3.642227 1.799316,4.882126c0.898804,-1.162415 -0.07518,-2.014847 1.348724,-1.472397c0.225266,1.549881 0,2.014847 0.973709,3.177246c-2.097855,3.331207 -3.147034,5.26857 -5.245911,8.601318c-0.37468,-0.542709 -0.37468,-1.782867 -1.198303,-1.782867c-1.424606,3.796921 -1.57399,7.207443 2.322464,9.299271c0,4.184402 -2.247253,0.542984 -2.697159,-0.465225c-1.34845,0.93045 -1.724152,0.31076 -2.92244,-0.773911c0,-1.395416 0.373688,-1.860641 -1.424667,-2.713318c0,-1.472122 0.899582,-3.487228 1.948746,-5.037094c0,-0.541702 -0.898804,-1.549881 -1.348709,-2.014847c-0.67421,0.852417 -0.150131,0.542694 -0.150131,1.705124c-0.674438,0 -3.521713,-2.634537 -3.521713,-3.409485l4.271149,0.231964c1.948471,-2.168533 -0.37471,-1.006897 2.773056,-2.943466c-0.675201,-0.542465 -2.023651,-2.092331 -1.19931,-3.177261c-2.92244,-0.697449 -2.323181,-2.71228 -3.896179,-4.572128c0,1.472366 -1.200302,1.472366 -1.574036,0.232468c-0.974716,-0.619934 -3.82225,-4.184662 -4.347046,-4.184662c-0.149429,0.309967 -3.148056,3.487198 -0.299789,3.487198c-1.423645,1.549896 -2.99765,1.394928 -0.824356,3.564743c-0.973999,1.314819 -3.147049,1.472382 -3.447556,3.719711c1.125137,2.633499 0.300507,0.387466 0.300507,1.937347c4.79599,-0.232483 2.022934,-0.080078 3.971405,2.246033c1.49884,0 2.548004,-0.309982 3.297424,1.62738c-0.824631,1.008179 -2.622955,0.387451 -3.147064,0.310745c0.973755,1.394623 2.097855,4.649643 3.746094,4.804108c0,0.542984 -3.746094,0.774933 -3.746094,-0.930191c-0.600006,1.473175 -0.749374,2.170364 -1.799316,3.642471c-3.446548,0 -1.42363,-0.541946 -3.446548,1.937347c-3.82225,0 -7.344742,-4.494125 -10.941666,-5.114853c-4.271881,0 -2.923431,1.008209 -4.496475,-2.40152c0.824631,-2.014847 0.29953,-0.233032 -1.199295,-2.248108c-0.449646,1.008179 0.674484,1.705368 -0.225311,2.71228c-0.823624,0 -2.097855,-0.231964 -2.697144,-1.937347c-0.899536,-5.115891 -3.297165,-4.803345 -6.295807,-1.704086c-5.24588,0 -0.674225,-0.698227 -9.29245,2.479034c1.87352,2.402557 3.372345,0.387466 5.245865,2.867798c2.248245,-1.394653 -0.823608,-1.937363 2.923462,-1.937363c0,-1.395401 1.573029,-1.472137 2.547729,-2.712296c1.124146,0 2.173065,0.231979 2.847549,1.240158c-0.224594,0.929169 -3.148026,1.472137 -3.672119,1.239929c-0.37471,1.0849 -3.222961,4.338867 -4.496475,4.338867c-0.074951,0.465225 -1.04895,5.96756 -0.150146,6.587006c-0.224564,0.774918 1.724152,2.247314 1.724152,3.409714c-2.248245,1.860641 -2.622955,0.775726 -3.298141,2.480057c-1.34845,-1.549881 -1.947739,-4.881592 -0.599045,-6.818924c-3.971649,0 -7.044479,-4.650681 -9.74234,-6.58699c0.600021,3.099747 -5.245895,3.022003 -6.519394,2.401535c-5.171692,0 -4.946365,-1.549881 -10.267441,-1.16243c-0.29953,-1.162384 -1.199051,-2.71228 -2.17305,-3.254211c1.124115,-0.542984 4.721039,-3.177536 6.818909,-0.619705c0.675217,-2.480057 -0.448929,-3.255005 -0.823608,-5.657578c-2.54776,-0.929413 -3.897186,-1.706406 -5.396011,-4.338608c-1.57402,0 -1.948715,-0.154999 -1.948715,1.62735c-2.847504,0 -7.193604,-4.572128 -9.217514,-6.586975c-3.072601,-1.317398 -2.47258,-1.0849 -4.496475,-3.257324c0,-4.182114 -2.622955,-4.492065 -5.695557,-4.0271c-0.674438,-0.929947 -3.672089,-3.022278 -3.672089,1.007401c-0.824356,1.007416 -1.573776,1.317429 -2.773071,2.71228c-1.873535,-2.479782 -2.772324,-2.71228 0.225311,-4.494614c-1.049927,-2.634827 1.048935,-2.092361 1.048935,-4.804657c-1.948486,-1.239868 -3.97139,1.082352 -3.97139,3.874695c-0.824585,0.852448 -2.622948,4.029724 -3.897438,0.232498c-1.048927,-4.107193 -1.498817,-7.12944 -3.897186,-10.926636c-2.098106,0 -4.346344,5.889542 -5.321083,6.974457l-1.497818,-1.627365c-2.473564,2.942184 -1.199303,2.247314 -7.644501,2.402313c-0.824356,-1.859863 -3.522476,-0.154999 -4.720795,0.309967c-0.300522,0 -3.07283,4.572128 -3.07283,4.572128c-6.220619,0 2.24823,-7.129425 1.498825,-6.58699c3.29715,0 6.2948,-1.472382 9.442841,-1.937347c1.348442,0.232483 2.772308,1.007416 3.896416,-0.232452c0,-4.339676 -5.170921,-1.862473 -5.695755,-1.472412c-6.144684,-1.62735 -4.196953,0.074905 -8.61824,2.479813c-2.772324,-1.859848 -3.896446,-0.697449 -5.845161,1.627365c0,2.324814 -0.899544,1.70488 -2.17305,0.309967l-0.374702,-2.479797c-0.374702,1.239929 0.224571,3.177277 -0.374702,4.649628c-0.899551,0 -2.622948,-2.479797 -4.121773,-2.479797c-2.62294,-3.022232 -3.822243,-4.339661 -3.822243,-8.524323c-1.573769,-2.092316 -2.24823,0.617371 -1.948471,-2.944778c-0.449905,-0.542465 -5.9953,-5.34964 -6.744713,-5.424561l0,0l0,0zm148.158684,208.843094c-3.072815,6.198486 -3.072815,6.198486 -3.972366,4.804871c-2.847519,-0.697174 -7.569305,1.549866 -8.168594,-1.395416c-1.04892,-5.03714 -2.773056,-3.487213 -2.17305,-3.254242c-0.150116,3.023315 1.649231,4.880829 4.496475,6.355042c2.847534,1.238098 2.622925,-1.860626 4.721054,3.176483l0,0.464172c1.349426,0.776001 2.323181,1.474182 3.897186,1.474182c1.42363,-1.627625 1.87352,-2.09494 3.82225,-1.860596c4.496475,0.619415 5.54538,2.24704 4.72081,-0.31076c0.224564,-1.472412 1.348694,-2.790039 2.023895,-4.105896c5.4702,0 6.21962,3.020966 7.418915,-4.650665l3.74707,-4.185455c2.698135,0 4.721054,0.234009 5.020569,-2.402557c2.398346,-0.464203 1.424637,0.233246 1.424637,-1.47113c-1.799347,-0.465179 -2.99765,0.464233 -4.497467,0.464233c4.946365,-2.86676 2.923431,-1.626617 6.446198,0.46521c0.898514,-0.153442 1.947693,-1.162415 2.697098,-1.627625c0,-2.711273 -4.571655,-1.783173 -5.245865,-1.783173c0,-2.477936 -3.596924,-0.15213 -4.12178,0.542999l-5.32106,3.178528c0,0.851685 -2.69812,3.176514 -2.69812,4.571899c-5.020554,0 -5.320099,4.804108 -6.294815,-3.873627c-0.973999,-2.016174 -2.697144,-1.31897 -2.697144,-3.721313l-0.225296,-0.155487c-0.749451,-0.542999 -2.698166,-0.308685 -3.672134,-0.308685c-1.12413,-1.317932 -0.97374,-2.324829 -0.97374,-3.56604c-3.222977,0 -2.098862,-0.464172 -2.098862,2.636627c1.199081,1.704346 3.222977,2.478271 4.571411,4.416626c-0.524841,7.748383 0.674484,1.393341 2.022934,6.585968l-4.870209,-0.464172l0,0"/>
    <path fill="#b2b2b2" fill-rule="nonzero" id="path10309" d="m358.694641,415.180969c0,1.084686 0.974243,1.626587 1.798553,1.626587c0,-0.852692 0.524628,-1.626587 1.199097,-1.626587c0,-0.853699 -2.473083,-0.077728 -2.99765,0l0,0zm-16.861755,-13.252747c-0.6745,0.232239 -2.622955,-0.619446 -2.622955,0.698212c0,0.620728 0.074951,1.471344 0.524567,1.705383c0.899292,0.153442 4.421539,-2.558868 2.098389,-2.403595l0,0zm20.2341,12.554535c0,1.162384 -0.374695,1.240143 1.273987,1.317627c0.974274,-1.317627 -1.124115,-1.317627 -1.273987,-1.317627l0,0zm1.49884,0c0.374664,1.006927 0.74942,1.317627 1.648682,1.317627c0.299805,-0.852417 -0.74939,-2.402283 -1.648682,-1.317627l0,0zm4.49649,0.230927c-0.599548,-0.463898 -0.449707,-1.548859 -1.049225,-1.857544c-2.547974,-1.627625 -1.124084,2.789001 -0.974213,3.176514c0.674438,0 2.248199,-0.620483 2.023438,-1.31897l0,0zm12.140442,41.305969c-2.548004,0.54187 -0.974274,1.395538 0.524536,1.395538c0.149872,-0.853668 0.224854,-0.931366 -0.524536,-1.395538l0,0zm-159.17482,-143.674622c-0.599991,-0.389526 -1.648926,-0.931458 -2.098831,0.230957c0,-0.153198 1.274261,5.114838 1.49884,5.656799c0.974716,0 3.147751,-2.945557 3.147751,-3.796173c-1.1241,-0.698212 -2.54776,0.619659 -2.54776,-2.091583l0,0zm147.034378,108.95459c0.823547,-0.308655 0,4.185486 0,4.49411c0.973969,0 2.622894,0.464203 3.521698,0c0,-0.698151 -1.873535,-4.416351 -2.24823,-4.49411c-0.374725,-0.156494 -0.973999,-0.156494 -1.273468,0l0,0zm9.74231,20.535919c-0.449921,-1.318939 -1.424622,-2.014069 -2.848236,-1.705383c-0.074188,0.386444 0.374695,4.416656 0.52478,4.416656c0.224579,0 2.323456,-2.400543 2.323456,-0.386475c-0.974731,2.633514 1.79834,2.867523 0.973969,4.959351c0.225342,1.473145 1.873535,1.782135 2.848267,4.494385c0.59903,1.239929 0.59903,2.788757 1.423645,3.798004c2.847534,-3.023041 4.795959,-3.40976 2.323425,-7.595184c1.198334,2.247345 -1.9487,-3.564697 -1.9487,-1.704071c-0.674225,0 -1.349426,0 -2.023651,-0.309998c0,-3.875488 -0.524109,-2.866516 -1.49884,-6.587769c-0.224579,-0.698456 -0.149414,-1.471375 -0.149414,-2.169525c-1.349426,-1.781891 -1.9487,2.634521 -1.9487,2.790009l0,0zm-339.108524,-104.148499c0,-0.467285 2.09795,3.562866 0.224422,4.494141c-0.449821,1.315826 0.150284,3.952454 1.274403,4.80304c2.24823,1.705383 3.747059,7.053253 3.747059,9.920776c0.749413,0.464233 0.973835,-4.495148 0.823578,-4.881592c-0.149311,0 -2.322407,-5.270111 -1.423687,-5.580872c0.600109,-1.936584 0.150257,-4.183624 -1.423702,-4.416656c-1.199238,-0.155457 -0.749416,-1.084625 -0.374706,-2.091766c1.948666,0 1.274399,-0.077789 1.873531,-1.627625c2.398514,0 2.698074,-3.487274 3.897339,-4.88266c-2.248238,-1.084656 -0.899696,1.782074 -3.597755,1.782074c-0.299583,-0.541901 -0.749409,-1.937317 0.225403,-1.937317c1.648132,1.704102 -4.871178,-4.648834 -4.346191,-4.648834c-0.225422,0.542938 0,1.007141 0.074142,1.472351c-0.224426,0.697205 -1.124119,0.928131 -1.348541,1.860626c-0.374706,1.240173 0,4.649628 0.374706,5.734314l0,0zm357.843784,115.151062c-0.300507,1.473175 -0.225311,0.233002 0.29953,2.171417c-0.150116,0.929413 -0.674225,0.386414 -0.899536,1.162384l1.724121,2.322784c1.574005,0.853699 1.273499,-0.075684 1.648224,2.016113c1.49881,0 0.524811,-4.805145 0.524811,-5.036072c-1.423615,0 0.299805,-2.636627 -3.29715,-2.636627l0,0zm-0.600006,5.270142c-1.648224,0 0.524811,1.473145 0.524811,1.473145l0,1.160339c2.323456,1.0867 -0.674225,-2.555725 -0.524811,-2.633484l0,0zm5.545349,34.639282c-0.524048,0.853424 -0.373688,3.100769 1.424652,1.782867c0,-0.851654 -1.048889,-1.705139 -1.424652,-1.782867l0,0zm261.170532,7.361908c0.149841,0.155243 -0.149902,0.698212 -0.524597,0.853485c-0.449646,0.308929 -0.824402,0.386688 -0.974243,0.231201c-0.074951,-0.231201 0.149841,-0.618713 0.524597,-0.929443c0.449646,-0.155243 0.824341,-0.308655 0.974243,-0.155243l0,0"/>
   </g>
  </g>
 </g>
</svg>