<?xml version="1.0"?><svg width="744.09448819" height="1052.3622047" xmlns="https://www.w3.org/2000/svg" xmlns:xlink="https://www.w3.org/1999/xlink">
 <title>web browser with transparent background</title>
 <defs>
  <linearGradient id="linearGradient7339">
   <stop stop-color="#cac2c2" id="stop7341" offset="0"/>
   <stop stop-color="#a6a6a6" id="stop7343" offset="1"/>
  </linearGradient>
  <radialGradient r="19.191433" fy="295.21448" fx="419.01294" cy="295.21448" cx="419.01294" gradientTransform="matrix(1.9285714,-1.4946868e-7,9.410991e-8,1.2142857,-389.08346,-63.260181)" gradientUnits="userSpaceOnUse" id="radialGradient7457" xlink:href="#linearGradient7339"/>
  <linearGradient id="linearGradient5105">
   <stop stop-color="#cbcbcb" offset="0" id="stop5107"/>
   <stop stop-color="#dddddd" id="stop5113" offset="0.81"/>
   <stop stop-color="#c5c5c5" offset="1" id="stop5109"/>
  </linearGradient>
  <linearGradient y2="-0.000001" x2="0.378881" y1="1.058889" x1="0.378881" spreadMethod="pad" id="linearGradient7455" xlink:href="#linearGradient5105"/>
  <filter id="filter3387">
   <feGaussianBlur id="feGaussianBlur3389" stdDeviation="1.877244"/>
  </filter>
 </defs>
 <metadata id="metadata3237">image/svg+xml</metadata>
 <g>
  <title>Layer 1</title>
  <rect transform="matrix(6.42458 0 0 6.42458 -1623.19 -1244.55)" fill="#666666" filter="url(#filter3387)" id="rect6501" width="73.545013" height="63.118347" x="271.57693" y="214.25754"/>
  <rect transform="matrix(6.42458 0 0 6.42458 -1623.19 -1244.55)" fill="url(#linearGradient7455)" y="209.41096" x="271.57693" height="67.964912" width="73.545013" id="rect6503"/>
  <rect transform="matrix(6.42458 0 0 6.42458 -1623.19 -1244.55)" fill="#e6e6e6" stroke-width="0.276" stroke-miterlimit="4" ry="0.654311" y="221.88571" x="275.25418" height="49.977177" width="66.190506" id="rect6609"/>
  <rect transform="matrix(6.42458 0 0 6.42458 -1623.19 -1244.55)" fill="#e6e6e6" stroke-width="0.276" stroke-miterlimit="4" id="rect7061" width="66.190506" height="7.004269" x="275.25418" y="212.83879" ry="0.091701"/>
  <path opacity="0.791209" fill="#008000" stroke-width="0.9" stroke-miterlimit="4" d="m178.289307,134.005936l-9.933716,6.012451l-10.020752,6.012466l10.020752,6.012558l9.933716,6.012451l0,-8.19101l7.92955,0c0.141571,0 0.261353,-0.11969 0.261353,-0.261353l0,-7.145309c0,-0.141647 -0.119781,-0.261353 -0.261353,-0.261353l-7.92955,0l0,-8.190903z" id="path7063"/>
  <path opacity="0.791209" fill="#008000" stroke-width="0.9" stroke-miterlimit="4" id="path7074" d="m205.073227,158.055862l9.933716,-6.012451l10.020752,-6.012558l-10.020752,-6.012466l-9.933716,-6.012451l0,8.190903l-7.92955,0c-0.141571,0 -0.261353,0.119705 -0.261353,0.261353l0,7.145309c0,0.141663 0.119781,0.261353 0.261353,0.261353l7.92955,0l0,8.19101z"/>
  <g id="g7287" transform="matrix(4.19991 0 0 4.19991 -614.345 -1104.22)">
   <path opacity="0.791209" fill="#008000" stroke-width="0.9" stroke-miterlimit="4" id="path7278" d="m207.923538,298.345032l0.052582,2.547485l2.704346,-0.751953l-0.921997,-0.858551c0,0 1.785965,-1.706665 0.306946,-3.785004c-1.516922,-2.131622 -3.613083,-1.494263 -3.547531,-0.783417c0.058182,0.630768 0.920197,-0.015167 2.069153,1.351166c1.152954,1.371063 0.339264,2.654144 0.339264,2.654144l-1.002762,-0.373871z"/>
   <path opacity="0.791209" fill="#008000" stroke-width="0.9" stroke-miterlimit="4" d="m205.838745,296.990051l-0.052582,-2.547516l-2.704346,0.751984l0.921997,0.858521c0,0 -1.78598,1.706665 -0.306961,3.785004c1.516937,2.131622 3.613098,1.494263 3.547531,0.783417c-0.058167,-0.630768 -0.920181,0.015167 -2.069138,-1.351135c-1.152954,-1.371094 -0.339264,-2.654175 -0.339264,-2.654175l1.002762,0.373901z" id="path7285"/>
  </g>
  <rect transform="matrix(6.42458 0 0 6.42458 -1623.19 -1244.55)" fill="#ffffff" stroke="#b6b6b6" stroke-width="0.276" stroke-miterlimit="4" ry="0.03786" y="214.89502" x="296.85602" height="2.891819" width="36.695004" id="rect7291"/>
  <path opacity="0.472527" fill="url(#radialGradient7457)" stroke-width="1.3" stroke-miterlimit="4" d="m589.709717,383.488007a145.314194,145.314194 0 1 1 -290.628571,0a145.314194,145.314194 0 1 1 290.628571,0z" id="path7363"/>
  <path opacity="0.472527" fill="#666666" stroke-width="1.3" stroke-miterlimit="4" d="m443.22757,238.176865c-19.780151,0 -38.578064,3.947128 -55.770599,11.114975c2.197266,2.113953 5.403107,4.99794 4.184357,9.87265c-1.292236,5.168701 -0.508575,10.177704 3.792053,13.403229c3.933228,2.94986 5.753662,5.434967 5.753662,11.507202c0,5.57486 -0.63623,9.279053 -1.896118,14.318573c-0.973846,3.895355 -2.1073,9.614899 -5.753662,10.526489c-4.668243,1.167053 -6.901978,1.381653 -9.545715,6.668976c-2.326263,4.652466 -7.413116,10.289856 -10.526398,13.403137c-2.602142,2.602234 -3.505798,4.597076 -7.649567,6.668976c-3.802826,1.901398 -11.391449,-1.247833 -12.422546,2.876831c-1.087952,4.351898 0.980713,8.16629 0.980713,13.403229c0,8.570496 -11.216553,-1.511047 -17.260773,0c-4.485901,1.12146 -9.656677,-0.250092 -14.318634,0.915405c-3.490326,0.872589 -8.997314,2.695374 -10.526428,5.753571c-1.852783,3.705292 -8.478333,9.65451 -4.772949,11.507111c2.937805,1.468903 7.49942,0.665222 12.422546,1.896118c1.825531,0.456329 11.084778,7.860931 11.507294,7.649689c5.945007,-2.972504 7.65625,-1.889465 11.441833,1.896118c3.236206,3.236206 6.236755,6.3284 10.526398,9.545685c6.256165,4.692169 6.668884,8.285522 6.668884,15.299255c0,5.682495 1.157349,9.787659 4.772766,13.403259c5.253296,5.253082 7.273926,7.758972 11.507294,13.403229c2.372162,3.163055 9.387878,11.184784 8.565002,15.299347c-1.030914,5.15506 -2.803101,12.368011 -5.688171,16.214783c-1.659088,2.211975 -7.415863,7.201752 -5.753662,10.526398c3.046417,6.092834 1.843964,7.310181 2.876831,11.441833c1.229706,4.918427 -4.010864,16.547272 -5.753662,20.137573c-1.334991,0 -2.657043,0.00061 -3.988312,0.065308c22.257843,13.858276 48.495728,21.902954 76.627563,21.902954c41.617249,0 79.149506,-17.561737 105.656769,-45.636536c-4.180237,-1.322632 -9.700378,-2.90741 -10.003296,-4.11908c-1.139526,-4.557678 1.895935,-8.213654 1.895935,-13.337769c0,-5.22348 1.348694,-8.989471 0,-14.383942c-1.555542,-6.223022 -3.096985,-5.150757 -7.649597,-8.564972c-8.549683,-6.412445 -1.315186,-2.542542 -5.753662,1.895905c-2.89093,2.891144 -8.660828,7.705261 -12.422485,10.526428c-3.844238,2.883301 -9.427307,5.64856 -13.403259,8.630463c-3.042877,2.282166 -8.650665,4.985107 -9.545685,8.565002c-1.144043,4.576508 0.288208,8.226013 2.876801,13.403229c3.140137,6.280273 2.911743,7.57959 0,13.403229c-2.253326,4.5065 -5.736206,4.792572 -9.545685,7.64978c-4.478668,3.358948 -10.480133,2.81134 -17.195496,2.81134c-2.756226,0 -11.507111,1.53125 -11.507111,-3.792023c0,-5.275665 -3.531281,-9.351807 -4.772949,-14.318665c-0.903839,-3.615601 0,-8.822235 0,-13.403229c0,-4.517303 1.882019,-10.498169 3.792267,-14.318665c2.854279,-5.708557 1.990814,-9.596283 -3.792267,-12.487823c-5.181152,-2.590759 -4.282593,-6.799622 -2.876831,-12.422516c1.22287,-4.890991 2.416687,-9.606293 4.772949,-14.318634c2.480011,-4.960205 3.352478,-8.637177 4.772766,-14.318665c1.316559,-5.265839 1.6185,-11.212433 -0.915222,-16.28006c-2.117462,-4.234772 -5.537201,-9.529327 -6.734344,-14.318542c-0.791718,-3.167297 -3.845001,-12.369812 -0.915436,-15.299377c4.052216,-4.052124 12.546265,-2.998474 16.214783,-2.876709c4.580017,3.434906 12.24881,2.757233 16.28006,4.772736c3.432068,1.716156 9.835297,-0.803162 13.403229,0.980713c4.258881,2.129547 8.890259,4.902924 12.422546,6.668976c6.0354,3.0177 6.868286,2.598114 13.337708,0.980804c4.868042,-1.21698 10.448425,1.752411 12.488037,3.792145c5.242126,5.242035 5.879517,6.583771 7.58429,13.403229c1.253052,5.012146 -1.293213,10.367096 -2.81134,13.40332c-2.705444,5.410767 2.866821,7.639587 6.668884,11.44165c4.484131,4.484344 4.965698,4.694916 6.668884,11.507294c1.154236,4.616486 8.087158,0.572906 9.611145,6.668884c1.788879,7.155304 4.44635,3.203278 7.649597,0c3.680115,-3.680115 4.459656,-8.382477 7.58429,-11.507111c2.592346,-2.592163 4.03479,-16.85788 4.838257,-20.072327c1.28772,-5.15094 -0.226685,-12.2836 -0.980713,-15.299255c-1.314392,-5.257507 -5.276855,-7.769257 -6.668884,-13.33783c-1.042236,-4.168884 0,-10.061462 0,-14.384033c0,-3.61795 -5.460938,-10.79129 -6.734375,-13.33786c-0.894775,-1.789551 -7.286865,-4.475433 -8.564941,-5.753662c-3.7854,-3.78537 -7.64978,-3.70105 -7.649597,-10.526398c0,-6.068634 -3.241516,-8.443726 -7.64978,-9.545807c-6.505981,-1.626434 -8.545227,4.602478 -10.526428,8.565094c-2.985046,5.970032 -4.430237,8.630402 -11.507324,8.630402c-4.303162,0 -10.167786,-0.858368 -14.31842,-1.896027c-5.992279,-1.498016 -8.403442,-2.984558 -13.403229,-6.734375c-3.804596,-2.853485 -9.956665,-4.597748 -14.318665,-5.688263c-3.691864,-0.922974 -3.472076,9.060638 -2.876831,11.441833c1.394592,5.578369 6.734375,3.719208 6.734375,10.526489c0,3.258759 -10.913055,1.896027 -13.403229,1.896027c-4.780212,0 -9.603943,0 -14.383942,0c-7.035126,0 -7.934082,0.281464 -10.461121,-4.772858c-1.816925,-3.633911 -2.876831,-9.114532 -2.876831,-13.403229c0,-4.78009 0,-9.538544 0,-14.318542c0,-4.996155 2.618408,-6.391937 7.649567,-7.649689c6.107178,-1.526825 8.656952,-0.026459 12.422546,-3.792236c4.005554,-4.005463 0.32016,-6.797974 7.64978,-8.630371c7.47467,-1.868683 6.343384,-2.225922 9.545685,-8.63031c1.979645,-3.959381 2.661163,-6.656494 3.857544,-11.441895c1.172852,-4.691406 2.491547,-6.239594 3.792053,-11.441742c1.127136,-4.50827 0.980896,-9.396011 0.980682,-14.384033c0,-2.420792 -2.349792,-4.337982 -4.903503,-5.818939c-12.735657,-3.649017 -26.176727,-5.622879 -40.078949,-5.622879zm139.001556,187.841721c-0.902649,1.596924 -1.792236,3.245422 -2.288452,5.23056c-1.160461,4.642181 -3.70575,8.154846 -4.772949,12.422546c-0.221741,0.887573 -0.590759,1.948456 -1.11145,3.072876c3.232239,-6.658691 5.975159,-13.548523 8.172852,-20.725983zm-8.172852,20.725983c-1.562073,3.37384 -4.133606,7.482727 -5.557434,10.330353c1.980652,-3.359344 3.846375,-6.805145 5.557434,-10.330353zm-7.388062,13.337952c-1.898071,2.720764 -4.006165,4.873932 -5.818909,8.499695c-0.080383,0.160767 -0.121399,0.300385 -0.196289,0.457611c2.112976,-2.893677 4.116333,-5.907349 6.015198,-8.957306z" id="path7313"/>
  <rect transform="matrix(6.42458 0 0 6.42458 -1623.19 -1244.55)" opacity="0.472527" fill="#cccccc" stroke-width="1.3" stroke-miterlimit="4" id="rect7414" width="13.136992" height="35.526997" x="276.56226" y="234.44162"/>
  <rect transform="matrix(6.42458 0 0 6.42458 -1623.19 -1244.55)" opacity="0.472527" fill="#cccccc" stroke-width="1.3" stroke-miterlimit="4" y="234.44162" x="290.61313" height="35.526997" width="48.092815" id="rect7416"/>
  <rect transform="matrix(6.42458 0 0 6.42458 -1623.19 -1244.55)" opacity="0.472527" fill="#cccccc" stroke-width="1.3" stroke-miterlimit="4" id="rect7418" width="62.257919" height="9.93842" x="276.56226" y="223.47508"/>
  <path opacity="0.791209" fill="#008000" stroke-width="0.9" stroke-miterlimit="4" d="m531.812378,157.688934l9.781982,-5.9207l9.868042,-5.920807l-9.868042,-5.9207l-9.781982,-5.9207l0,8.065918l0,7.550964l0,8.066025z" id="path7434"/>
 </g>
</svg>